<svg id="SvgjsSvg1006" width="1170.0874938964844" height="1059.199993133545" xmlns="http://www.w3.org/2000/svg" version="1.1" xmlns:xlink="http://www.w3.org/1999/xlink" xmlns:svgjs="http://svgjs.com/svgjs"><defs id="SvgjsDefs1007"><marker id="SvgjsMarker1214" markerWidth="16" markerHeight="12" refX="16" refY="6" viewBox="0 0 16 12" orient="auto" markerUnits="userSpaceOnUse" stroke-dasharray="0,0"><path id="SvgjsPath1215" d="M0,2 L14,6 L0,11 L0,2" fill="#323232" stroke="#323232" stroke-width="2"></path></marker><marker id="SvgjsMarker1218" markerWidth="16" markerHeight="12" refX="16" refY="6" viewBox="0 0 16 12" orient="auto" markerUnits="userSpaceOnUse" stroke-dasharray="0,0"><path id="SvgjsPath1219" d="M0,2 L14,6 L0,11 L0,2" fill="#323232" stroke="#323232" stroke-width="2"></path></marker><marker id="SvgjsMarker1226" markerWidth="16" markerHeight="12" refX="16" refY="6" viewBox="0 0 16 12" orient="auto" markerUnits="userSpaceOnUse" stroke-dasharray="0,0"><path id="SvgjsPath1227" d="M0,2 L14,6 L0,11 L0,2" fill="#323232" stroke="#323232" stroke-width="2"></path></marker><marker id="SvgjsMarker1230" markerWidth="16" markerHeight="12" refX="16" refY="6" viewBox="0 0 16 12" orient="auto" markerUnits="userSpaceOnUse" stroke-dasharray="0,0"><path id="SvgjsPath1231" d="M0,2 L14,6 L0,11 L0,2" fill="#323232" stroke="#323232" stroke-width="2"></path></marker><marker id="SvgjsMarker1234" markerWidth="16" markerHeight="12" refX="16" refY="6" viewBox="0 0 16 12" orient="auto" markerUnits="userSpaceOnUse" stroke-dasharray="0,0"><path id="SvgjsPath1235" d="M0,2 L14,6 L0,11 L0,2" fill="#323232" stroke="#323232" stroke-width="2"></path></marker><marker id="SvgjsMarker1254" markerWidth="16" markerHeight="12" refX="16" refY="6" viewBox="0 0 16 12" orient="auto" markerUnits="userSpaceOnUse" stroke-dasharray="0,0"><path id="SvgjsPath1255" d="M0,2 L14,6 L0,11 L0,2" fill="#323232" stroke="#323232" stroke-width="2"></path></marker><marker id="SvgjsMarker1258" markerWidth="16" markerHeight="12" refX="16" refY="6" viewBox="0 0 16 12" orient="auto" markerUnits="userSpaceOnUse" stroke-dasharray="0,0"><path id="SvgjsPath1259" d="M0,2 L14,6 L0,11 L0,2" fill="#323232" stroke="#323232" stroke-width="2"></path></marker><marker id="SvgjsMarker1262" markerWidth="16" markerHeight="12" refX="16" refY="6" viewBox="0 0 16 12" orient="auto" markerUnits="userSpaceOnUse" stroke-dasharray="0,0"><path id="SvgjsPath1263" d="M0,2 L14,6 L0,11 L0,2" fill="#323232" stroke="#323232" stroke-width="2"></path></marker><marker id="SvgjsMarker1266" markerWidth="16" markerHeight="12" refX="16" refY="6" viewBox="0 0 16 12" orient="auto" markerUnits="userSpaceOnUse" stroke-dasharray="0,0"><path id="SvgjsPath1267" d="M0,2 L14,6 L0,11 L0,2" fill="#323232" stroke="#323232" stroke-width="2"></path></marker><marker id="SvgjsMarker1270" markerWidth="16" markerHeight="12" refX="16" refY="6" viewBox="0 0 16 12" orient="auto" markerUnits="userSpaceOnUse" stroke-dasharray="0,0"><path id="SvgjsPath1271" d="M0,2 L14,6 L0,11 L0,2" fill="#323232" stroke="#323232" stroke-width="2"></path></marker><marker id="SvgjsMarker1274" markerWidth="16" markerHeight="12" refX="16" refY="6" viewBox="0 0 16 12" orient="auto" markerUnits="userSpaceOnUse" stroke-dasharray="0,0"><path id="SvgjsPath1275" d="M0,2 L14,6 L0,11 L0,2" fill="#323232" stroke="#323232" stroke-width="2"></path></marker></defs><g id="SvgjsG1008" transform="translate(608.5805841594805,617.7624969482421)"><path id="SvgjsPath1009" d="M 0 4Q 0 0 4 0L 478.04023493231614 0Q 482.04023493231614 0 482.04023493231614 4L 482.04023493231614 411.9428863525392Q 482.04023493231614 415.9428863525392 478.04023493231614 415.9428863525392L 4 415.9428863525392Q 0 415.9428863525392 0 411.9428863525392Z" stroke="rgba(50,50,50,1)" stroke-width="2" fill-opacity="1" fill="#cce5ff"></path><g id="SvgjsG1010"><text id="SvgjsText1011" font-family="微软雅黑" text-anchor="middle" font-size="19px" width="473px" fill="#323232" font-weight="700" align="middle" anchor="middle" family="微软雅黑" size="19px" weight="700" font-style="" opacity="1" y="15.860206168038511" transform="rotate(0)"><tspan id="SvgjsTspan1012" dy="23" x="241.5"><tspan id="SvgjsTspan1013" style="text-decoration:;">数据过滤</tspan></tspan></text></g></g><g id="SvgjsG1014" transform="translate(287.127849370987,452.2096233230228)"><path id="SvgjsPath1015" d="M 0 4Q 0 0 4 0L 274.1596567325285 0Q 278.1596567325285 0 278.1596567325285 4L 278.1596567325285 577.4957599777584Q 278.1596567325285 581.4957599777584 274.1596567325285 581.4957599777584L 4 581.4957599777584Q 0 581.4957599777584 0 577.4957599777584Z" stroke="rgba(50,50,50,1)" stroke-width="2" fill-opacity="1" fill="#e5ccff"></path><g id="SvgjsG1016"><text id="SvgjsText1017" font-family="微软雅黑" text-anchor="middle" font-size="19px" width="269px" fill="#323232" font-weight="700" align="middle" anchor="middle" family="微软雅黑" size="19px" weight="700" font-style="" opacity="1" y="27.68541142698274" transform="rotate(0)"><tspan id="SvgjsTspan1018" dy="23" x="139.5"><tspan id="SvgjsTspan1019" style="text-decoration:;">数据分析</tspan></tspan></text></g></g><g id="SvgjsG1020" transform="translate(25.001791817801305,538.5625010899134)"><path id="SvgjsPath1021" d="M 0 4Q 0 0 4 0L 224.57142857142856 0Q 228.57142857142856 0 228.57142857142856 4L 228.57142857142856 485.74615786391496Q 228.57142857142856 489.74615786391496 224.57142857142856 489.74615786391496L 4 489.74615786391496Q 0 489.74615786391496 0 485.74615786391496Z" stroke="rgba(50,50,50,1)" stroke-width="2" fill-opacity="1" fill="#ffcce6"></path><g id="SvgjsG1022"><text id="SvgjsText1023" font-family="微软雅黑" text-anchor="middle" font-size="19px" width="219px" fill="#323232" font-weight="700" align="middle" anchor="middle" family="微软雅黑" size="19px" weight="700" font-style="" opacity="1" y="21.131868418851063" transform="rotate(0)"><tspan id="SvgjsTspan1024" dy="23" x="114.5"><tspan id="SvgjsTspan1025" style="text-decoration:;">数据可视化</tspan></tspan></text></g></g><g id="SvgjsG1026" transform="translate(641.2580510225141,674.088785676805)"><path id="SvgjsPath1027" d="M 0 4Q 0 0 4 0L 193.74372335667113 0Q 197.74372335667113 0 197.74372335667113 4L 197.74372335667113 341.1016776146457Q 197.74372335667113 345.1016776146457 193.74372335667113 345.1016776146457L 4 345.1016776146457Q 0 345.1016776146457 0 341.1016776146457Z" stroke="rgba(50,50,50,1)" stroke-width="2" fill-opacity="1" fill="#99ffcc"></path><g id="SvgjsG1028"><text id="SvgjsText1029" font-family="微软雅黑" text-anchor="middle" font-size="17px" width="188px" fill="#323232" font-weight="700" align="middle" anchor="middle" family="微软雅黑" size="17px" weight="700" font-style="" opacity="1" y="12.600119829617551" transform="rotate(0)"><tspan id="SvgjsTspan1030" dy="21" x="99"><tspan id="SvgjsTspan1031" style="text-decoration:;">手工过滤</tspan></tspan></text></g></g><g id="SvgjsG1032" transform="translate(868.3804481834732,673.1339416503905)"><path id="SvgjsPath1033" d="M 0 4Q 0 0 4 0L 195.70263923568905 0Q 199.70263923568905 0 199.70263923568905 4L 199.70263923568905 343.0113656674745Q 199.70263923568905 347.0113656674745 195.70263923568905 347.0113656674745L 4 347.0113656674745Q 0 347.0113656674745 0 343.0113656674745Z" stroke="rgba(50,50,50,1)" stroke-width="2" fill-opacity="1" fill="#ff99cc"></path><g id="SvgjsG1034"><text id="SvgjsText1035" font-family="微软雅黑" text-anchor="middle" font-size="17px" width="190px" fill="#323232" font-weight="700" align="middle" anchor="middle" family="微软雅黑" size="17px" weight="700" font-style="" opacity="1" y="12.736526119105317" transform="rotate(0)"><tspan id="SvgjsTspan1036" dy="21" x="100"><tspan id="SvgjsTspan1037" style="text-decoration:;">自动过滤</tspan></tspan></text></g></g><g id="SvgjsG1038" transform="translate(898.4422097620688,735.8692746553024)"><path id="SvgjsPath1039" d="M 0 0L 139.5791160784977 0L 139.5791160784977 65.036934299844L 0 65.036934299844Z" stroke="rgba(50,50,50,1)" stroke-width="2" fill-opacity="1" fill="#ffffff"></path><g id="SvgjsG1040"><text id="SvgjsText1041" font-family="微软雅黑" text-anchor="middle" font-size="15px" width="120px" fill="#323232" font-weight="400" align="middle" anchor="middle" family="微软雅黑" size="15px" weight="400" font-style="" opacity="1" y="21.268467149922003" transform="rotate(0)"><tspan id="SvgjsTspan1042" dy="18" x="70"><tspan id="SvgjsTspan1043" style="text-decoration:;">语言过滤</tspan></tspan></text></g></g><g id="SvgjsG1044" transform="translate(903.5734363429169,827.869274655302)"><path id="SvgjsPath1045" d="M 0 0L 129.31666291680153 0L 129.31666291680153 70.97895270937431L 0 70.97895270937431Z" stroke="rgba(50,50,50,1)" stroke-width="2" fill-opacity="1" fill="#ff6666"></path><g id="SvgjsG1046"><text id="SvgjsText1047" font-family="微软雅黑" text-anchor="middle" font-size="15px" width="110px" fill="#323232" font-weight="400" align="middle" anchor="middle" family="微软雅黑" size="15px" weight="400" font-style="" opacity="1" y="5.739476354687156" transform="rotate(0)"><tspan id="SvgjsTspan1048" dy="18" x="65"><tspan id="SvgjsTspan1049" style="text-decoration:;">正则表达式过滤</tspan></tspan><tspan id="SvgjsTspan1050" dy="18" x="65"><tspan id="SvgjsTspan1051" style="text-decoration:;">（过滤模式总结</tspan></tspan><tspan id="SvgjsTspan1052" dy="18" x="65"><tspan id="SvgjsTspan1053" style="text-decoration:;">与优化）</tspan></tspan></text></g></g><g id="SvgjsG1054" transform="translate(899.0913890648068,919.8800804688066)"><path id="SvgjsPath1055" d="M 0 0L 138.28075747302182 0L 138.28075747302182 81.82528975301261L 0 81.82528975301261Z" stroke="rgba(50,50,50,1)" stroke-width="2" fill-opacity="1" fill="#ffffff"></path><g id="SvgjsG1056"><text id="SvgjsText1057" font-family="&quot;Times New Roman&quot;" text-anchor="middle" font-size="15px" width="119px" fill="#323232" font-weight="400" align="middle" anchor="middle" family="&quot;Times New Roman&quot;" size="15px" weight="400" font-style="" opacity="1" y="1.662644876506306" transform="rotate(0)"><tspan id="SvgjsTspan1058" dy="18" x="69.5"><tspan id="SvgjsTspan1059" style="text-decoration:;">根据过滤结果划</tspan></tspan><tspan id="SvgjsTspan1060" dy="18" x="69.5"><tspan id="SvgjsTspan1061" style="text-decoration:;">分原始数据为 </tspan></tspan><tspan id="SvgjsTspan1062" dy="18" x="69.5"><tspan id="SvgjsTspan1063" style="text-decoration:;">filtered 和 no </tspan></tspan><tspan id="SvgjsTspan1064" dy="18" x="69.5"><tspan id="SvgjsTspan1065" style="text-decoration:;">filtered</tspan></tspan></text></g></g><g id="SvgjsG1066" transform="translate(675.6208190917968,896.0026467946756)"><path id="SvgjsPath1067" d="M 0 0L 120.39030016832191 0L 120.39030016832191 64.05432984315507L 0 64.05432984315507Z" stroke="rgba(50,50,50,1)" stroke-width="2" fill-opacity="1" fill="#ff6666"></path><g id="SvgjsG1068"><text id="SvgjsText1069" font-family="&quot;Times New Roman&quot;" text-anchor="middle" font-size="15px" width="101px" fill="#323232" font-weight="400" align="middle" anchor="middle" family="&quot;Times New Roman&quot;" size="15px" weight="400" font-style="" opacity="1" y="20.777164921577537" transform="rotate(0)"><tspan id="SvgjsTspan1070" dy="18" x="60.5"><tspan id="SvgjsTspan1071" style="text-decoration:;">abstract 过滤</tspan></tspan></text></g></g><g id="SvgjsG1072" transform="translate(675.6208190917968,759.8958485921223)"><path id="SvgjsPath1073" d="M 0 0L 120.39030016832191 0L 120.39030016832191 67.97342606317966L 0 67.97342606317966Z" stroke="rgba(50,50,50,1)" stroke-width="2" fill-opacity="1" fill="#ff6666"></path><g id="SvgjsG1074"><text id="SvgjsText1075" font-family="&quot;Times New Roman&quot;" text-anchor="middle" font-size="15px" width="101px" fill="#323232" font-weight="400" align="middle" anchor="middle" family="&quot;Times New Roman&quot;" size="15px" weight="400" font-style="" opacity="1" y="22.73671303158983" transform="rotate(0)"><tspan id="SvgjsTspan1076" dy="18" x="60.5"><tspan id="SvgjsTspan1077" style="text-decoration:;">title 过滤</tspan></tspan></text></g></g><g id="SvgjsG1078" transform="translate(329.8659989982534,563.7490314816758)"><path id="SvgjsPath1079" d="M 0 0L 179.45248748543514 0L 179.45248748543514 88.00002616772258L 0 88.00002616772258Z" stroke="rgba(50,50,50,1)" stroke-width="2" fill-opacity="1" fill="#ff6666"></path><g id="SvgjsG1080"><text id="SvgjsText1081" font-family="&quot;Times New Roman&quot;" text-anchor="middle" font-size="15px" width="160px" fill="#323232" font-weight="400" align="middle" anchor="middle" family="&quot;Times New Roman&quot;" size="15px" weight="400" font-style="" opacity="1" y="32.75001308386129" transform="rotate(0)"><tspan id="SvgjsTspan1082" dy="18" x="90"><tspan id="SvgjsTspan1083" style="text-decoration:;">topics 分析</tspan></tspan></text></g></g><g id="SvgjsG1084" transform="translate(332.2552138803998,719.908787924425)"><path id="SvgjsPath1085" d="M 0 0L 175.00025163755652 0L 175.00025163755652 100.14072118297963L 0 100.14072118297963Z" stroke="rgba(50,50,50,1)" stroke-width="2" fill-opacity="1" fill="#ffffff"></path><g id="SvgjsG1086"><text id="SvgjsText1087" font-family="微软雅黑" text-anchor="middle" font-size="15px" width="156px" fill="#323232" font-weight="400" align="middle" anchor="middle" family="微软雅黑" size="15px" weight="400" font-style="" opacity="1" y="38.820360591489816" transform="rotate(0)"><tspan id="SvgjsTspan1088" dy="18" x="88"><tspan id="SvgjsTspan1089" style="text-decoration:;">标准化并保存分析结果</tspan></tspan></text></g></g><g id="SvgjsG1090" transform="translate(333.36604787631387,882.9256817821157)"><path id="SvgjsPath1091" d="M 0 0L 172.77858364572842 0L 172.77858364572842 90.20825986827481L 0 90.20825986827481Z" stroke="rgba(50,50,50,1)" stroke-width="2" fill-opacity="1" fill="#ffffff"></path><g id="SvgjsG1092"><text id="SvgjsText1093" font-family="&quot;Times New Roman&quot;" text-anchor="middle" font-size="15px" width="153px" fill="#323232" font-weight="400" align="middle" anchor="middle" family="&quot;Times New Roman&quot;" size="15px" weight="400" font-style="" opacity="1" y="24.354129934137404" transform="rotate(0)"><tspan id="SvgjsTspan1094" dy="18" x="86.5"><tspan id="SvgjsTspan1095" style="text-decoration:;">根据论文数，year，cite </tspan></tspan><tspan id="SvgjsTspan1096" dy="18" x="86.5"><tspan id="SvgjsTspan1097" style="text-decoration:;">汇总 topics</tspan></tspan></text></g></g><g id="SvgjsG1098" transform="translate(34.287506103515625,111.40225570120799)"><path id="SvgjsPath1099" d="M 0 4Q 0 0 4 0L 228.1428571428571 0Q 232.1428571428571 0 232.1428571428571 4L 232.1428571428571 370.8269122370243Q 232.1428571428571 374.8269122370243 228.1428571428571 374.8269122370243L 4 374.8269122370243Q 0 374.8269122370243 0 370.8269122370243Z" stroke="rgba(50,50,50,1)" stroke-width="2" fill-opacity="1" fill="#ffffcc"></path><g id="SvgjsG1100"><text id="SvgjsText1101" font-family="微软雅黑" text-anchor="middle" font-size="19px" width="223px" fill="#323232" font-weight="700" align="middle" anchor="middle" family="微软雅黑" size="19px" weight="700" font-style="" opacity="1" y="12.923350874073163" transform="rotate(0)"><tspan id="SvgjsTspan1102" dy="23" x="116.5"><tspan id="SvgjsTspan1103" style="text-decoration:;">准备阶段</tspan></tspan></text></g></g><g id="SvgjsG1104" transform="translate(317.6667789868909,108.5625)"><path id="SvgjsPath1105" d="M 0 4Q 0 0 4 0L 467.50632774566554 0Q 471.50632774566554 0 471.50632774566554 4L 471.50632774566554 291.4285714285714Q 471.50632774566554 295.4285714285714 467.50632774566554 295.4285714285714L 4 295.4285714285714Q 0 295.4285714285714 0 291.4285714285714Z" stroke="rgba(50,50,50,1)" stroke-width="2" fill-opacity="1" fill="#ccffcc"></path><g id="SvgjsG1106"><text id="SvgjsText1107" font-family="微软雅黑" text-anchor="middle" font-size="19px" width="462px" fill="#323232" font-weight="700" align="middle" anchor="middle" family="微软雅黑" size="19px" weight="700" font-style="" opacity="1" y="7.2520408163265255" transform="rotate(0)"><tspan id="SvgjsTspan1108" dy="23" x="236"><tspan id="SvgjsTspan1109" style="text-decoration:;">数据获取</tspan></tspan></text></g></g><g id="SvgjsG1110" transform="translate(817.1365750809003,108.5625)"><path id="SvgjsPath1111" d="M 0 4Q 0 0 4 0L 261.3350886387648 0Q 265.3350886387648 0 265.3350886387648 4L 265.3350886387648 461.51778972430975Q 265.3350886387648 465.51778972430975 261.3350886387648 465.51778972430975L 4 465.51778972430975Q 0 465.51778972430975 0 461.51778972430975Z" stroke="rgba(50,50,50,1)" stroke-width="2" fill-opacity="1" fill="#ccffff"></path><g id="SvgjsG1112"><text id="SvgjsText1113" font-family="微软雅黑" text-anchor="middle" font-size="19px" width="256px" fill="#323232" font-weight="700" align="middle" anchor="middle" family="微软雅黑" size="19px" weight="700" font-style="" opacity="1" y="19.40127069459355" transform="rotate(0)"><tspan id="SvgjsTspan1114" dy="23" x="133"><tspan id="SvgjsTspan1115" style="text-decoration:;">数据预处理</tspan></tspan></text></g></g><g id="SvgjsG1116" transform="translate(86.48339271276704,355.95932321699826)"><path id="SvgjsPath1117" d="M 0 0L 137.46049658054383 0L 137.46049658054383 68.60317805456742L 0 68.60317805456742Z" stroke="rgba(50,50,50,1)" stroke-width="2" fill-opacity="1" fill="#ffffff"></path><g id="SvgjsG1118"><text id="SvgjsText1119" font-family="微软雅黑" text-anchor="middle" font-size="15px" width="118px" fill="#323232" font-weight="400" align="middle" anchor="middle" family="微软雅黑" size="15px" weight="400" font-style="" opacity="1" y="23.05158902728371" transform="rotate(0)"><tspan id="SvgjsTspan1120" dy="18" x="69"><tspan id="SvgjsTspan1121" style="text-decoration:;">目标网站选取</tspan></tspan></text></g></g><g id="SvgjsG1122" transform="translate(90.71201665034023,187.897627676229)"><path id="SvgjsPath1123" d="M 0 0L 135.47619047619048 0L 135.47619047619048 78.33154026200339L 0 78.33154026200339Z" stroke="rgba(50,50,50,1)" stroke-width="2" fill-opacity="1" fill="#ff6666"></path><g id="SvgjsG1124"><text id="SvgjsText1125" font-family="微软雅黑" text-anchor="middle" font-size="15px" width="116px" fill="#323232" font-weight="400" align="middle" anchor="middle" family="微软雅黑" size="15px" weight="400" font-style="" opacity="1" y="9.415770131001693" transform="rotate(0)"><tspan id="SvgjsTspan1126" dy="18" x="68"><tspan id="SvgjsTspan1127" style="text-decoration:;">关键词选取（选</tspan></tspan><tspan id="SvgjsTspan1128" dy="18" x="68"><tspan id="SvgjsTspan1129" style="text-decoration:;">取方法参考其它</tspan></tspan><tspan id="SvgjsTspan1130" dy="18" x="68"><tspan id="SvgjsTspan1131" style="text-decoration:;">文献）</tspan></tspan></text></g></g><g id="SvgjsG1132" transform="translate(342.00554741549297,215.09644993437428)"><path id="SvgjsPath1133" d="M 0 0L 103.06122448979602 0L 103.06122448979602 121.64332996220412L 0 121.64332996220412Z" stroke="rgba(50,50,50,1)" stroke-width="2" fill-opacity="1" fill="#ff6666"></path><g id="SvgjsG1134"><text id="SvgjsText1135" font-family="微软雅黑" text-anchor="middle" font-size="15px" width="84px" fill="#323232" font-weight="400" align="middle" anchor="middle" family="微软雅黑" size="15px" weight="400" font-style="" opacity="1" y="21.57166498110206" transform="rotate(0)"><tspan id="SvgjsTspan1136" dy="18" x="52"><tspan id="SvgjsTspan1137" style="text-decoration:;">高级搜索</tspan></tspan><tspan id="SvgjsTspan1138" dy="18" x="52"><tspan id="SvgjsTspan1139" style="text-decoration:;">（将关键词</tspan></tspan><tspan id="SvgjsTspan1140" dy="18" x="52"><tspan id="SvgjsTspan1141" style="text-decoration:;">适配到每个</tspan></tspan><tspan id="SvgjsTspan1142" dy="18" x="52"><tspan id="SvgjsTspan1143" style="text-decoration:;">网站）</tspan></tspan></text></g></g><g id="SvgjsG1144" transform="translate(497.6667789868909,215.09644993437428)"><path id="SvgjsPath1145" d="M 0 0L 111.50632774566566 0L 111.50632774566566 121.64332996220412L 0 121.64332996220412Z" stroke="rgba(50,50,50,1)" stroke-width="2" fill-opacity="1" fill="#ffffff"></path><g id="SvgjsG1146"><text id="SvgjsText1147" font-family="微软雅黑" text-anchor="middle" font-size="15px" width="92px" fill="#323232" font-weight="400" align="middle" anchor="middle" family="微软雅黑" size="15px" weight="400" font-style="" opacity="1" y="49.57166498110206" transform="rotate(0)"><tspan id="SvgjsTspan1148" dy="18" x="56"><tspan id="SvgjsTspan1149" style="text-decoration:;">目标数据选取</tspan></tspan></text></g></g><g id="SvgjsG1150" transform="translate(655.8101142011361,213.94267607621964)"><path id="SvgjsPath1151" d="M 0 0L 113.04145356502431 0L 113.04145356502431 123.9508776785134L 0 123.9508776785134Z" stroke="rgba(50,50,50,1)" stroke-width="2" fill-opacity="1" fill="#ff6666"></path><g id="SvgjsG1152"><text id="SvgjsText1153" font-family="微软雅黑" text-anchor="middle" font-size="15px" width="94px" fill="#323232" font-weight="400" align="middle" anchor="middle" family="微软雅黑" size="15px" weight="400" font-style="" opacity="1" y="41.2254388392567" transform="rotate(0)"><tspan id="SvgjsTspan1154" dy="18" x="57"><tspan id="SvgjsTspan1155" style="text-decoration:;">爬虫获取数据</tspan></tspan><tspan id="SvgjsTspan1156" dy="18" x="57"><tspan id="SvgjsTspan1157" style="text-decoration:;">（异常处理）</tspan></tspan></text></g></g><g id="SvgjsG1158" transform="translate(877.1160838797331,177.70535496303012)"><path id="SvgjsPath1159" d="M 0 0L 139.70866046887045 0L 139.70866046887045 63.92787459232932L 0 63.92787459232932Z" stroke="rgba(50,50,50,1)" stroke-width="2" fill-opacity="1" fill="#ff6666"></path><g id="SvgjsG1160"><text id="SvgjsText1161" font-family="&quot;Times New Roman&quot;" text-anchor="middle" font-size="15px" width="120px" fill="#323232" font-weight="400" align="middle" anchor="middle" family="&quot;Times New Roman&quot;" size="15px" weight="400" font-style="" opacity="1" y="11.213937296164659" transform="rotate(0)"><tspan id="SvgjsTspan1162" dy="18" x="70"><tspan id="SvgjsTspan1163" style="text-decoration:;">year，topics 手动</tspan></tspan><tspan id="SvgjsTspan1164" dy="18" x="70"><tspan id="SvgjsTspan1165" style="text-decoration:;">填充，并标准化</tspan></tspan></text></g></g><g id="SvgjsG1166" transform="translate(877.9394862791167,286.2767835344587)"><path id="SvgjsPath1167" d="M 0 0L 139.33926552768207 0L 139.33926552768207 60.43007048532559L 0 60.43007048532559Z" stroke="rgba(50,50,50,1)" stroke-width="2" fill-opacity="1" fill="#ffffff"></path><g id="SvgjsG1168"><text id="SvgjsText1169" font-family="&quot;Times New Roman&quot;" text-anchor="middle" font-size="15px" width="120px" fill="#323232" font-weight="400" align="middle" anchor="middle" family="&quot;Times New Roman&quot;" size="15px" weight="400" font-style="" opacity="1" y="18.965035242662793" transform="rotate(0)"><tspan id="SvgjsTspan1170" dy="18" x="70"><tspan id="SvgjsTspan1171" style="text-decoration:;">cite 异常值填充</tspan></tspan></text></g></g><g id="SvgjsG1172" transform="translate(876.9500693557859,389.4793327101161)"><path id="SvgjsPath1173" d="M 0 0L 140.78266344246492 0L 140.78266344246492 60.00000000000006L 0 60.00000000000006Z" stroke="rgba(50,50,50,1)" stroke-width="2" fill-opacity="1" fill="#ffffff"></path><g id="SvgjsG1174"><text id="SvgjsText1175" font-family="&quot;Times New Roman&quot;" text-anchor="middle" font-size="15px" width="121px" fill="#323232" font-weight="400" align="middle" anchor="middle" family="&quot;Times New Roman&quot;" size="15px" weight="400" font-style="" opacity="1" y="9.250000000000028" transform="rotate(0)"><tspan id="SvgjsTspan1176" dy="18" x="70.5"><tspan id="SvgjsTspan1177" style="text-decoration:;">根据 url，title，</tspan></tspan><tspan id="SvgjsTspan1178" dy="18" x="70.5"><tspan id="SvgjsTspan1179" style="text-decoration:;">abstract 去重</tspan></tspan></text></g></g><g id="SvgjsG1180" transform="translate(873.5490596403338,483.5624999999999)"><path id="SvgjsPath1181" d="M 0 0L 147.58468287336893 0L 147.58468287336893 58.571428571428555L 0 58.571428571428555Z" stroke="rgba(50,50,50,1)" stroke-width="2" fill-opacity="1" fill="#ffffff"></path><g id="SvgjsG1182"><text id="SvgjsText1183" font-family="微软雅黑" text-anchor="middle" font-size="15px" width="128px" fill="#323232" font-weight="400" align="middle" anchor="middle" family="微软雅黑" size="15px" weight="400" font-style="" opacity="1" y="18.035714285714278" transform="rotate(0)"><tspan id="SvgjsTspan1184" dy="18" x="74"><tspan id="SvgjsTspan1185" style="text-decoration:;">移除空值</tspan></tspan></text></g></g><g id="SvgjsG1186" transform="translate(587.2208302815756,416.5625)"><path id="SvgjsPath1187" d="M 25.054834677425173 124.52888206328105C -20.87902889785431 88.94920147377218 8.351611559141725 62.26444103164052 18.79112600806888 53.3695208842633C 14.61532022849802 8.894920147377219 66.8128924731338 0 87.69192137098811 17.789840294754438C 104.39514448927156 -8.894920147377219 156.59271673390734 0 156.59271673390734 26.68476044213165C 198.35077452961596 17.789840294754438 215.05399764789942 53.3695208842633 198.35077452961596 97.8441216211494C 212.966094758114 133.42380221065827 198.35077452961596 177.89840294754435 150.32900806455103 160.1085626527899C 139.8894936156239 183.23535503597068 98.13143581991525 183.23535503597068 87.69192137098811 160.1085626527899C 66.8128924731338 177.89840294754435 25.054834677425173 169.00348280016712 25.054834677425173 124.52888206328105Z" stroke="rgba(50,50,50,1)" stroke-width="2" fill-opacity="1" fill="#ffcc99"></path><g id="SvgjsG1188"><text id="SvgjsText1189" font-family="微软雅黑" text-anchor="middle" font-size="20px" width="189px" fill="#ff3333" font-weight="400" align="middle" anchor="middle" family="微软雅黑" size="20px" weight="400" font-style="" opacity="1" y="60.94920147377218" transform="rotate(0)"><tspan id="SvgjsTspan1190" dy="25" x="104.5"><tspan id="SvgjsTspan1191" style="text-decoration:;">数据日期截止到 </tspan></tspan><tspan id="SvgjsTspan1192" dy="25" x="104.5"><tspan id="SvgjsTspan1193" style="text-decoration:;">2020/10/23</tspan></tspan></text></g></g><g id="SvgjsG1194" transform="translate(66.55612791849707,689.1904632914508)"><path id="SvgjsPath1195" d="M 0 0L 142.67156856576202 0L 142.67156856576202 91.65775535391742L 0 91.65775535391742Z" stroke="rgba(50,50,50,1)" stroke-width="2" fill-opacity="1" fill="#ffffff"></path><g id="SvgjsG1196"><text id="SvgjsText1197" font-family="&quot;Times New Roman&quot;" text-anchor="middle" font-size="15px" width="123px" fill="#323232" font-weight="400" align="middle" anchor="middle" family="&quot;Times New Roman&quot;" size="15px" weight="400" font-style="" opacity="1" y="25.07887767695871" transform="rotate(0)"><tspan id="SvgjsTspan1198" dy="18" x="71.5"><tspan id="SvgjsTspan1199" style="text-decoration:;">根据论文数和 cite </tspan></tspan><tspan id="SvgjsTspan1200" dy="18" x="71.5"><tspan id="SvgjsTspan1201" style="text-decoration:;">排序数据</tspan></tspan></text></g></g><g id="SvgjsG1202" transform="translate(63.90985508715502,864.8213377624135)"><path id="SvgjsPath1203" d="M 0 0L 147.14285714285714 0L 147.14285714285714 86.02688088295474L 0 86.02688088295474Z" stroke="rgba(50,50,50,1)" stroke-width="2" fill-opacity="1" fill="#ff6666"></path><g id="SvgjsG1204"><text id="SvgjsText1205" font-family="微软雅黑" text-anchor="middle" font-size="15px" width="128px" fill="#323232" font-weight="400" align="middle" anchor="middle" family="微软雅黑" size="15px" weight="400" font-style="" opacity="1" y="31.76344044147737" transform="rotate(0)"><tspan id="SvgjsTspan1206" dy="18" x="74"><tspan id="SvgjsTspan1207" style="text-decoration:;">绘图</tspan></tspan></text></g></g><g id="SvgjsG1208" transform="translate(243.3351251511346,239.80567450277897)"><path id="SvgjsPath1209" d="M 0 19.8L 60 19.8L 60 0L 90 30L 60 60L 60 40.2L 0 40.2L 0 19.8Z" stroke="rgba(50,50,50,1)" stroke-width="2" fill-opacity="1" fill="#ffffff"></path><g id="SvgjsG1210"><text id="SvgjsText1211" font-family="微软雅黑" text-anchor="middle" font-size="13px" width="90px" fill="#323232" font-weight="400" align="middle" anchor="middle" family="微软雅黑" size="13px" weight="400" font-style="" opacity="1" y="20.05" transform="rotate(0)"></text></g></g><g id="SvgjsG1212"><path id="SvgjsPath1213" d="M441.9524932726052 275.91811491547634L469.809636129748 275.91811491547634L469.809636129748 275.91811491547634L497.6667789868909 275.91811491547634" stroke="#323232" stroke-width="2" fill="none" marker-end="url(#SvgjsMarker1214)"></path></g><g id="SvgjsG1216"><path id="SvgjsPath1217" d="M609.1731067325566 275.91811491547634L632.4916104668464 275.91811491547634L632.4916104668464 275.91811491547634L655.8101142011361 275.91811491547634" stroke="#323232" stroke-width="2" fill="none" marker-end="url(#SvgjsMarker1218)"></path></g><g id="SvgjsG1220" transform="translate(778.1252064102242,247.4917164353617)"><path id="SvgjsPath1221" d="M 0 18.761422996875666L 46.735883774560705 18.761422996875666L 46.735883774560705 0L 75.16228225467535 28.426398480114642L 46.735883774560705 56.852796960229284L 46.735883774560705 38.091373963353625L 0 38.091373963353625L 0 18.761422996875666Z" stroke="rgba(50,50,50,1)" stroke-width="2" fill-opacity="1" fill="#ffffff"></path><g id="SvgjsG1222"><text id="SvgjsText1223" font-family="微软雅黑" text-anchor="middle" font-size="13px" width="76px" fill="#323232" font-weight="400" align="middle" anchor="middle" family="微软雅黑" size="13px" weight="400" font-style="" opacity="1" y="18.476398480114646" transform="rotate(0)"></text></g></g><g id="SvgjsG1224"><path id="SvgjsPath1225" d="M946.9704141141683 241.63322955535943L946.9704141141683 263.95500654490905L947.6091190429578 263.95500654490905L947.6091190429578 286.2767835344587" stroke="#323232" stroke-width="2" fill="none" marker-end="url(#SvgjsMarker1226)"></path></g><g id="SvgjsG1228"><path id="SvgjsPath1229" d="M947.6091190429578 346.70685401978426L947.6091190429578 368.09309336495016L947.3414010770183 368.09309336495016L947.3414010770183 389.4793327101161" stroke="#323232" stroke-width="2" fill="none" marker-end="url(#SvgjsMarker1230)"></path></g><g id="SvgjsG1232"><path id="SvgjsPath1233" d="M947.3414010770183 449.4793327101162L947.3414010770183 466.52091635505803L947.3414010770183 466.52091635505803L947.3414010770183 483.5624999999999" stroke="#323232" stroke-width="2" fill="none" marker-end="url(#SvgjsMarker1234)"></path></g><g id="SvgjsG1236" transform="translate(919.8041194002827,550.1339329310824)"><path id="SvgjsPath1237" d="M 19.8 0L 40.2 0L 40.2 60L 60 60L 30 90L 0 60L 19.8 60L 19.8 0Z" stroke="rgba(50,50,50,1)" stroke-width="2" fill-opacity="1" fill="#ffffff"></path><g id="SvgjsG1238"><text id="SvgjsText1239" font-family="微软雅黑" text-anchor="middle" font-size="13px" width="84px" fill="#323232" font-weight="400" align="middle" anchor="middle" family="微软雅黑" size="13px" weight="400" font-style="" opacity="1" y="30.55" transform="rotate(0)"></text></g></g><g id="SvgjsG1240" transform="translate(802.0327873248824,807.6784806195564)"><path id="SvgjsPath1241" d="M 0 30L 30 0L 30 19.8L 90 19.8L 90 40.2L 30 40.2L 30 60L 0 30Z" stroke="rgba(50,50,50,1)" stroke-width="2" fill-opacity="1" fill="#ffffff"></path><g id="SvgjsG1242"><text id="SvgjsText1243" font-family="微软雅黑" text-anchor="middle" font-size="13px" width="90px" fill="#323232" font-weight="400" align="middle" anchor="middle" family="微软雅黑" size="13px" weight="400" font-style="" opacity="1" y="20.05" transform="rotate(0)"></text></g></g><g id="SvgjsG1244" transform="translate(550.2875061035155,800.9062089551464)"><path id="SvgjsPath1245" d="M 0 30L 30 0L 30 19.8L 97.59999084472668 19.8L 97.59999084472668 40.2L 30 40.2L 30 60L 0 30Z" stroke="rgba(50,50,50,1)" stroke-width="2" fill-opacity="1" fill="#ffffff"></path><g id="SvgjsG1246"><text id="SvgjsText1247" font-family="微软雅黑" text-anchor="middle" font-size="13px" width="98px" fill="#323232" font-weight="400" align="middle" anchor="middle" family="微软雅黑" size="13px" weight="400" font-style="" opacity="1" y="20.05" transform="rotate(0)"></text></g></g><g id="SvgjsG1248" transform="translate(234.7626060198513,804.8213377624135)"><path id="SvgjsPath1249" d="M 0 30L 30 0L 30 19.8L 90 19.8L 90 40.2L 30 40.2L 30 60L 0 30Z" stroke="rgba(50,50,50,1)" stroke-width="2" fill-opacity="1" fill="#ffffff"></path><g id="SvgjsG1250"><text id="SvgjsText1251" font-family="微软雅黑" text-anchor="middle" font-size="13px" width="90px" fill="#323232" font-weight="400" align="middle" anchor="middle" family="微软雅黑" size="13px" weight="400" font-style="" opacity="1" y="20.05" transform="rotate(0)"></text></g></g><g id="SvgjsG1252"><path id="SvgjsPath1253" d="M968.2317678013177 800.9062089551464L968.2317678013177 814.3877418052242L968.2317678013177 814.3877418052242L968.2317678013177 827.869274655302" stroke="#323232" stroke-width="2" fill="none" marker-end="url(#SvgjsMarker1254)"></path></g><g id="SvgjsG1256"><path id="SvgjsPath1257" d="M968.2317678013177 898.8482273646763L968.2317678013177 909.3641539167414L968.2317678013177 909.3641539167414L968.2317678013177 919.8800804688066" stroke="#323232" stroke-width="2" fill="none" marker-end="url(#SvgjsMarker1258)"></path></g><g id="SvgjsG1260"><path id="SvgjsPath1261" d="M735.8159691759577 827.869274655302L735.8159691759577 861.9359607249887L735.8159691759577 861.9359607249887L735.8159691759577 896.0026467946756" stroke="#323232" stroke-width="2" fill="none" marker-end="url(#SvgjsMarker1262)"></path></g><g id="SvgjsG1264"><path id="SvgjsPath1265" d="M419.59224274097096 651.7490576493983L419.59224274097096 685.8289227869117L419.755339699178 685.8289227869117L419.755339699178 719.908787924425" stroke="#323232" stroke-width="2" fill="none" marker-end="url(#SvgjsMarker1266)"></path></g><g id="SvgjsG1268"><path id="SvgjsPath1269" d="M419.7553396991781 820.0495091074047L419.7553396991781 851.4875954447602L419.7553396991781 851.4875954447602L419.7553396991781 882.9256817821157" stroke="#323232" stroke-width="2" fill="none" marker-end="url(#SvgjsMarker1270)"></path></g><g id="SvgjsG1272"><path id="SvgjsPath1273" d="M137.89191220137803 780.8482186453682L137.89191220137803 822.8347782038909L137.4812836585836 822.8347782038909L137.4812836585836 864.8213377624135" stroke="#323232" stroke-width="2" fill="none" marker-end="url(#SvgjsMarker1274)"></path></g><g id="SvgjsG1276" transform="translate(210.10076581959328,292.2450251503596)"><path id="SvgjsPath1277" d="M 0 43.65873806060304C 0 -14.55291268686768 107.52007361725558 -14.55291268686768 107.52007361725558 43.65873806060304Q 105.36967214491047 85.57112659878196 53.76003680862779 87.31747612120608Q 35.84002453908519 87.31747612120608 17.920012269542596 78.58572850908548L 0 87.31747612120608L 12.579848613218903 74.83107703587362Q 0 61.122233284844256 0 43.65873806060304" stroke="rgba(50,50,50,1)" stroke-width="2" fill-opacity="1" fill="#ffcc99"></path><g id="SvgjsG1278"><text id="SvgjsText1279" font-family="&quot;Times New Roman&quot;" text-anchor="middle" font-size="15px" width="88px" fill="#323232" font-weight="400" align="middle" anchor="middle" family="&quot;Times New Roman&quot;" size="15px" weight="400" font-style="" opacity="1" y="4.408738060603042" transform="rotate(0)"><tspan id="SvgjsTspan1280" dy="18" x="54"><tspan id="SvgjsTspan1281" style="text-decoration:;">arxiv, ieee, </tspan></tspan><tspan id="SvgjsTspan1282" dy="18" x="54"><tspan id="SvgjsTspan1283" style="text-decoration:;">springer, </tspan></tspan><tspan id="SvgjsTspan1284" dy="18" x="54"><tspan id="SvgjsTspan1285" style="text-decoration:;">science direct, </tspan></tspan><tspan id="SvgjsTspan1286" dy="18" x="54"><tspan id="SvgjsTspan1287" style="text-decoration:;">acm</tspan></tspan></text></g></g><g id="SvgjsG1288" transform="translate(549.0953504154621,142.84820992606015)"><path id="SvgjsPath1289" d="M 0 45.85714067731584C 0 -15.28571355910528 154.28571428571433 -15.28571355910528 154.28571428571433 45.85714067731584Q 151.20000000000005 89.87999572753904 77.14285714285717 91.71428135463168Q 51.428571428571445 91.71428135463168 25.714285714285722 82.54285321916852L 0 91.71428135463168L 18.051428571428577 78.59913912091935Q 0 64.19999694824217 0 45.85714067731584" stroke="rgba(50,50,50,1)" stroke-width="2" fill-opacity="1" fill="#ffcc99"></path><g id="SvgjsG1290"><text id="SvgjsText1291" font-family="&quot;Times New Roman&quot;" text-anchor="middle" font-size="15px" width="135px" fill="#323232" font-weight="400" align="middle" anchor="middle" family="&quot;Times New Roman&quot;" size="15px" weight="400" font-style="" opacity="1" y="16.10714067731584" transform="rotate(0)"><tspan id="SvgjsTspan1292" dy="18" x="77.5"><tspan id="SvgjsTspan1293" style="text-decoration:;">year, origin, title, </tspan></tspan><tspan id="SvgjsTspan1294" dy="18" x="77.5"><tspan id="SvgjsTspan1295" style="text-decoration:;">topics, publisher, cite, </tspan></tspan><tspan id="SvgjsTspan1296" dy="18" x="77.5"><tspan id="SvgjsTspan1297" style="text-decoration:;">authors, url, abstract</tspan></tspan></text></g></g><g id="SvgjsG1298" transform="translate(1031.938705237205,726.7309085557454)"><path id="SvgjsPath1299" d="M 0 31.702785232347082C 0 -10.567595077449027 108.99998256138429 -10.567595077449027 108.99998256138429 31.702785232347082Q 106.8199829101566 62.13745905540028 54.49999128069214 63.405570464694165Q 36.33332752046143 63.405570464694165 18.166663760230715 57.06501341822475L 0 63.405570464694165L 12.752997959681963 54.3385738882429Q 0 44.38389932528591 0 31.702785232347082" stroke="rgba(50,50,50,1)" stroke-width="2" fill-opacity="1" fill="#ffcc99"></path><g id="SvgjsG1300"><text id="SvgjsText1301" font-family="&quot;Times New Roman&quot;" text-anchor="middle" font-size="13px" width="89px" fill="#323232" font-weight="400" align="middle" anchor="middle" family="&quot;Times New Roman&quot;" size="13px" weight="400" font-style="" opacity="1" y="21.752785232347083" transform="rotate(0)"><tspan id="SvgjsTspan1302" dy="16" x="54.5"><tspan id="SvgjsTspan1303" style="text-decoration:;">only English</tspan></tspan></text></g></g><g id="SvgjsG1304" transform="translate(1025.088806417758,810.1247396696518)"><path id="SvgjsPath1305" d="M 0 33.977551430428775C 0 -11.325850476809592 120.043008990212 -11.325850476809592 120.043008990212 33.977551430428775Q 117.64214881040776 66.5960008036404 60.021504495106 67.95510286085755Q 40.01433633007067 67.95510286085755 20.007168165035335 61.1595925747718L 0 67.95510286085755L 14.045032051854806 58.23752315175492Q 0 47.568572002600284 0 33.977551430428775" stroke="rgba(50,50,50,1)" stroke-width="2" fill-opacity="1" fill="#ffcc99"></path><g id="SvgjsG1306"><text id="SvgjsText1307" font-family="&quot;Times New Roman&quot;" text-anchor="middle" font-size="13px" width="101px" fill="#323232" font-weight="400" align="middle" anchor="middle" family="&quot;Times New Roman&quot;" size="13px" weight="400" font-style="" opacity="1" y="16.027551430428776" transform="rotate(0)"><tspan id="SvgjsTspan1308" dy="16" x="60.5"><tspan id="SvgjsTspan1309" style="text-decoration:;">base on the deny </tspan></tspan><tspan id="SvgjsTspan1310" dy="16" x="60.5"><tspan id="SvgjsTspan1311" style="text-decoration:;">pattern list</tspan></tspan></text></g></g><g id="SvgjsG1312" transform="translate(212.4133502324908,25.006941053602418)"><path id="SvgjsPath1313" d="M 0 86.11111111111111C 0 -28.703703703703706 203.54082253769144 -28.703703703703706 203.54082253769144 86.11111111111111Q 199.47000608693762 168.77777777777777 101.77041126884572 172.22222222222223Q 67.84694084589715 172.22222222222223 33.923470422948576 155L 0 172.22222222222223L 23.8142762369099 147.59444444444443Q 0 120.55555555555556 0 86.11111111111111" stroke="rgba(50,50,50,1)" stroke-width="2" fill-opacity="1" fill="#ffcc99"></path><g id="SvgjsG1314"><text id="SvgjsText1315" font-family="&quot;Times New Roman&quot;" text-anchor="middle" font-size="15px" width="184px" fill="#323232" font-weight="400" align="middle" anchor="middle" family="&quot;Times New Roman&quot;" size="15px" weight="400" font-style="" opacity="1" y="28.861111111111114" transform="rotate(0)"><tspan id="SvgjsTspan1316" dy="18" x="102"><tspan id="SvgjsTspan1317" style="text-decoration:;">(Bitcoin/Ethereum/Blockchai</tspan></tspan><tspan id="SvgjsTspan1318" dy="18" x="102"><tspan id="SvgjsTspan1319" style="text-decoration:;">n/Distributed Ledger) AND </tspan></tspan><tspan id="SvgjsTspan1320" dy="18" x="102"><tspan id="SvgjsTspan1321" style="text-decoration:;">(security/risk/threat/challenge/</tspan></tspan><tspan id="SvgjsTspan1322" dy="18" x="102"><tspan id="SvgjsTspan1323" style="text-decoration:;">attack/vulnerability) AND </tspan></tspan><tspan id="SvgjsTspan1324" dy="18" x="102"><tspan id="SvgjsTspan1325" style="text-decoration:;">NOT (Survey OR Overview </tspan></tspan><tspan id="SvgjsTspan1326" dy="18" x="102"><tspan id="SvgjsTspan1327" style="text-decoration:;">OR Review OR Tutorial)</tspan></tspan></text></g></g></svg>