<svg id="SvgjsSvg1006" width="1178.1374969482422" height="979.6500244140625" xmlns="http://www.w3.org/2000/svg" version="1.1" xmlns:xlink="http://www.w3.org/1999/xlink" xmlns:svgjs="http://svgjs.com/svgjs"><defs id="SvgjsDefs1007"><marker id="SvgjsMarker1192" markerWidth="16" markerHeight="12" refX="16" refY="6" viewBox="0 0 16 12" orient="auto" markerUnits="userSpaceOnUse" stroke-dasharray="0,0"><path id="SvgjsPath1193" d="M0,2 L14,6 L0,11 L0,2" fill="#323232" stroke="#323232" stroke-width="2"></path></marker><marker id="SvgjsMarker1196" markerWidth="16" markerHeight="12" refX="16" refY="6" viewBox="0 0 16 12" orient="auto" markerUnits="userSpaceOnUse" stroke-dasharray="0,0"><path id="SvgjsPath1197" d="M0,2 L14,6 L0,11 L0,2" fill="#323232" stroke="#323232" stroke-width="2"></path></marker><marker id="SvgjsMarker1204" markerWidth="16" markerHeight="12" refX="16" refY="6" viewBox="0 0 16 12" orient="auto" markerUnits="userSpaceOnUse" stroke-dasharray="0,0"><path id="SvgjsPath1205" d="M0,2 L14,6 L0,11 L0,2" fill="#323232" stroke="#323232" stroke-width="2"></path></marker><marker id="SvgjsMarker1208" markerWidth="16" markerHeight="12" refX="16" refY="6" viewBox="0 0 16 12" orient="auto" markerUnits="userSpaceOnUse" stroke-dasharray="0,0"><path id="SvgjsPath1209" d="M0,2 L14,6 L0,11 L0,2" fill="#323232" stroke="#323232" stroke-width="2"></path></marker><marker id="SvgjsMarker1212" markerWidth="16" markerHeight="12" refX="16" refY="6" viewBox="0 0 16 12" orient="auto" markerUnits="userSpaceOnUse" stroke-dasharray="0,0"><path id="SvgjsPath1213" d="M0,2 L14,6 L0,11 L0,2" fill="#323232" stroke="#323232" stroke-width="2"></path></marker><marker id="SvgjsMarker1232" markerWidth="16" markerHeight="12" refX="16" refY="6" viewBox="0 0 16 12" orient="auto" markerUnits="userSpaceOnUse" stroke-dasharray="0,0"><path id="SvgjsPath1233" d="M0,2 L14,6 L0,11 L0,2" fill="#323232" stroke="#323232" stroke-width="2"></path></marker><marker id="SvgjsMarker1236" markerWidth="16" markerHeight="12" refX="16" refY="6" viewBox="0 0 16 12" orient="auto" markerUnits="userSpaceOnUse" stroke-dasharray="0,0"><path id="SvgjsPath1237" d="M0,2 L14,6 L0,11 L0,2" fill="#323232" stroke="#323232" stroke-width="2"></path></marker><marker id="SvgjsMarker1240" markerWidth="16" markerHeight="12" refX="16" refY="6" viewBox="0 0 16 12" orient="auto" markerUnits="userSpaceOnUse" stroke-dasharray="0,0"><path id="SvgjsPath1241" d="M0,2 L14,6 L0,11 L0,2" fill="#323232" stroke="#323232" stroke-width="2"></path></marker><marker id="SvgjsMarker1244" markerWidth="16" markerHeight="12" refX="16" refY="6" viewBox="0 0 16 12" orient="auto" markerUnits="userSpaceOnUse" stroke-dasharray="0,0"><path id="SvgjsPath1245" d="M0,2 L14,6 L0,11 L0,2" fill="#323232" stroke="#323232" stroke-width="2"></path></marker><marker id="SvgjsMarker1248" markerWidth="16" markerHeight="12" refX="16" refY="6" viewBox="0 0 16 12" orient="auto" markerUnits="userSpaceOnUse" stroke-dasharray="0,0"><path id="SvgjsPath1249" d="M0,2 L14,6 L0,11 L0,2" fill="#323232" stroke="#323232" stroke-width="2"></path></marker><marker id="SvgjsMarker1252" markerWidth="16" markerHeight="12" refX="16" refY="6" viewBox="0 0 16 12" orient="auto" markerUnits="userSpaceOnUse" stroke-dasharray="0,0"><path id="SvgjsPath1253" d="M0,2 L14,6 L0,11 L0,2" fill="#323232" stroke="#323232" stroke-width="2"></path></marker></defs><g id="SvgjsG1008" transform="translate(608.5805841594805,538.2124862670897)"><path id="SvgjsPath1009" d="M 0 4Q 0 0 4 0L 494.7069219440349 0Q 498.7069219440349 0 498.7069219440349 4L 498.7069219440349 411.9428863525392Q 498.7069219440349 415.9428863525392 494.7069219440349 415.9428863525392L 4 415.9428863525392Q 0 415.9428863525392 0 411.9428863525392Z" stroke="rgba(50,50,50,1)" stroke-width="2" fill-opacity="1" fill="#cce5ff"></path><g id="SvgjsG1010"><text id="SvgjsText1011" font-family="微软雅黑" text-anchor="middle" font-size="13px" width="489px" fill="#323232" font-weight="700" align="middle" anchor="middle" family="微软雅黑" size="13px" weight="700" font-style="" opacity="1" y="20.76020616803851" transform="rotate(0)"><tspan id="SvgjsTspan1012" dy="16" x="249.5"><tspan id="SvgjsTspan1013" style="text-decoration:;">数据过滤</tspan></tspan></text></g></g><g id="SvgjsG1014" transform="translate(287.127849370987,372.65961264187047)"><path id="SvgjsPath1015" d="M 0 4Q 0 0 4 0L 274.1596567325285 0Q 278.1596567325285 0 278.1596567325285 4L 278.1596567325285 577.4957599777584Q 278.1596567325285 581.4957599777584 274.1596567325285 581.4957599777584L 4 581.4957599777584Q 0 581.4957599777584 0 577.4957599777584Z" stroke="rgba(50,50,50,1)" stroke-width="2" fill-opacity="1" fill="#e5ccff"></path><g id="SvgjsG1016"><text id="SvgjsText1017" font-family="微软雅黑" text-anchor="middle" font-size="13px" width="269px" fill="#323232" font-weight="700" align="middle" anchor="middle" family="微软雅黑" size="13px" weight="700" font-style="" opacity="1" y="32.58541142698274" transform="rotate(0)"><tspan id="SvgjsTspan1018" dy="16" x="139.5"><tspan id="SvgjsTspan1019" style="text-decoration:;">数据分析</tspan></tspan></text></g></g><g id="SvgjsG1020" transform="translate(25.001791817801305,459.0124904087611)"><path id="SvgjsPath1021" d="M 0 4Q 0 0 4 0L 224.57142857142856 0Q 228.57142857142856 0 228.57142857142856 4L 228.57142857142856 485.74615786391496Q 228.57142857142856 489.74615786391496 224.57142857142856 489.74615786391496L 4 489.74615786391496Q 0 489.74615786391496 0 485.74615786391496Z" stroke="rgba(50,50,50,1)" stroke-width="2" fill-opacity="1" fill="#ffcce6"></path><g id="SvgjsG1022"><text id="SvgjsText1023" font-family="微软雅黑" text-anchor="middle" font-size="13px" width="219px" fill="#323232" font-weight="700" align="middle" anchor="middle" family="微软雅黑" size="13px" weight="700" font-style="" opacity="1" y="26.031868418851065" transform="rotate(0)"><tspan id="SvgjsTspan1024" dy="16" x="114.5"><tspan id="SvgjsTspan1025" style="text-decoration:;">数据可视化</tspan></tspan></text></g></g><g id="SvgjsG1026" transform="translate(641.2580510225141,607.4124832153319)"><path id="SvgjsPath1027" d="M 0 4Q 0 0 4 0L 208.0294550810013 0Q 212.0294550810013 0 212.0294550810013 4L 212.0294550810013 325.9999999999999Q 212.0294550810013 329.9999999999999 208.0294550810013 329.9999999999999L 4 329.9999999999999Q 0 329.9999999999999 0 325.9999999999999Z" stroke="rgba(50,50,50,1)" stroke-width="2" fill-opacity="1" fill="#99ffcc"></path><g id="SvgjsG1028"><text id="SvgjsText1029" font-family="微软雅黑" text-anchor="middle" font-size="13px" width="203px" fill="#323232" font-weight="400" align="middle" anchor="middle" family="微软雅黑" size="13px" weight="400" font-style="" opacity="1" y="14.621428571428563" transform="rotate(0)"><tspan id="SvgjsTspan1030" dy="16" x="106.5"><tspan id="SvgjsTspan1031" style="text-decoration:;">手工过滤</tspan></tspan></text></g></g><g id="SvgjsG1032" transform="translate(898.4662958968183,599.4124832153319)"><path id="SvgjsPath1033" d="M 0 4Q 0 0 4 0L 189.64889798283912 0Q 193.64889798283912 0 193.64889798283912 4L 193.64889798283912 333.9999999999999Q 193.64889798283912 337.9999999999999 189.64889798283912 337.9999999999999L 4 337.9999999999999Q 0 337.9999999999999 0 333.9999999999999Z" stroke="rgba(50,50,50,1)" stroke-width="2" fill-opacity="1" fill="#ff99cc"></path><g id="SvgjsG1034"><text id="SvgjsText1035" font-family="微软雅黑" text-anchor="middle" font-size="13px" width="184px" fill="#323232" font-weight="400" align="middle" anchor="middle" family="微软雅黑" size="13px" weight="400" font-style="" opacity="1" y="15.192857142857132" transform="rotate(0)"><tspan id="SvgjsTspan1036" dy="16" x="97"><tspan id="SvgjsTspan1037" style="text-decoration:;">自动过滤</tspan></tspan></text></g></g><g id="SvgjsG1038" transform="translate(928.528057475414,659.5020773955308)"><path id="SvgjsPath1039" d="M 0 0L 129.65307814908283 0L 129.65307814908283 60.3675591401136L 0 60.3675591401136Z" stroke="rgba(50,50,50,1)" stroke-width="2" fill-opacity="1" fill="#ffffff"></path><g id="SvgjsG1040"><text id="SvgjsText1041" font-family="微软雅黑" text-anchor="middle" font-size="13px" width="110px" fill="#323232" font-weight="400" align="middle" anchor="middle" family="微软雅黑" size="13px" weight="400" font-style="" opacity="1" y="20.2337795700568" transform="rotate(0)"><tspan id="SvgjsTspan1042" dy="16" x="65"><tspan id="SvgjsTspan1043" style="text-decoration:;">语言过滤</tspan></tspan></text></g></g><g id="SvgjsG1044" transform="translate(930.8232732192864,751.5020773955304)"><path id="SvgjsPath1045" d="M 0 0L 125.06264666133802 0L 125.06264666133802 56.375854346798974L 0 56.375854346798974Z" stroke="rgba(50,50,50,1)" stroke-width="2" fill-opacity="1" fill="#ffffff"></path><g id="SvgjsG1046"><text id="SvgjsText1047" font-family="微软雅黑" text-anchor="middle" font-size="13px" width="106px" fill="#323232" font-weight="400" align="middle" anchor="middle" family="微软雅黑" size="13px" weight="400" font-style="" opacity="1" y="18.237927173399488" transform="rotate(0)"><tspan id="SvgjsTspan1048" dy="16" x="63"><tspan id="SvgjsTspan1049" style="text-decoration:;">关键词过滤</tspan></tspan></text></g></g><g id="SvgjsG1050" transform="translate(934.664024915267,842.0843117804635)"><path id="SvgjsPath1051" d="M 0 0L 117.38114326937671 0L 117.38114326937671 54.641049589307045L 0 54.641049589307045Z" stroke="rgba(50,50,50,1)" stroke-width="2" fill-opacity="1" fill="#ffffff"></path><g id="SvgjsG1052"><text id="SvgjsText1053" font-family="微软雅黑" text-anchor="middle" font-size="13px" width="98px" fill="#323232" font-weight="400" align="middle" anchor="middle" family="微软雅黑" size="13px" weight="400" font-style="" opacity="1" y="17.370524794653523" transform="rotate(0)"><tspan id="SvgjsTspan1054" dy="16" x="59"><tspan id="SvgjsTspan1055" style="text-decoration:;">模式过滤</tspan></tspan></text></g></g><g id="SvgjsG1056" transform="translate(684.4330119852203,807.8779317423293)"><path id="SvgjsPath1057" d="M 0 0L 125.49300016133702 0L 125.49300016133702 51.874593496165744L 0 51.874593496165744Z" stroke="rgba(50,50,50,1)" stroke-width="2" fill-opacity="1" fill="#ffffff"></path><g id="SvgjsG1058"><text id="SvgjsText1059" font-family="微软雅黑" text-anchor="middle" font-size="13px" width="106px" fill="#323232" font-weight="400" align="middle" anchor="middle" family="微软雅黑" size="13px" weight="400" font-style="" opacity="1" y="15.987296748082873" transform="rotate(0)"><tspan id="SvgjsTspan1060" dy="16" x="63"><tspan id="SvgjsTspan1061" style="text-decoration:;">abstract 过滤</tspan></tspan></text></g></g><g id="SvgjsG1062" transform="translate(685.9623879421252,681.75061016841)"><path id="SvgjsPath1063" d="M 0 0L 122.62078124177901 0L 122.62078124177901 56.46187609867957L 0 56.46187609867957Z" stroke="rgba(50,50,50,1)" stroke-width="2" fill-opacity="1" fill="#ffffff"></path><g id="SvgjsG1064"><text id="SvgjsText1065" font-family="微软雅黑" text-anchor="middle" font-size="13px" width="103px" fill="#323232" font-weight="400" align="middle" anchor="middle" family="微软雅黑" size="13px" weight="400" font-style="" opacity="1" y="18.280938049339785" transform="rotate(0)"><tspan id="SvgjsTspan1066" dy="16" x="61.5"><tspan id="SvgjsTspan1067" style="text-decoration:;">title 过滤</tspan></tspan></text></g></g><g id="SvgjsG1068" transform="translate(320.97785832232154,492.7267619443728)"><path id="SvgjsPath1069" d="M 0 0L 199.99999999999994 0L 199.99999999999994 80.43392189151552L 0 80.43392189151552Z" stroke="rgba(50,50,50,1)" stroke-width="2" fill-opacity="1" fill="#ffffff"></path><g id="SvgjsG1070"><text id="SvgjsText1071" font-family="微软雅黑" text-anchor="middle" font-size="13px" width="180px" fill="#323232" font-weight="400" align="middle" anchor="middle" family="微软雅黑" size="13px" weight="400" font-style="" opacity="1" y="30.266960945757763" transform="rotate(0)"><tspan id="SvgjsTspan1072" dy="16" x="100"><tspan id="SvgjsTspan1073" style="text-decoration:;">topics 分析</tspan></tspan></text></g></g><g id="SvgjsG1074" transform="translate(318.76384317632926,640.3587772432727)"><path id="SvgjsPath1075" d="M 0 0L 203.99999999999994 0L 203.99999999999994 95.65904944975841L 0 95.65904944975841Z" stroke="rgba(50,50,50,1)" stroke-width="2" fill-opacity="1" fill="#ffffff"></path><g id="SvgjsG1076"><text id="SvgjsText1077" font-family="微软雅黑" text-anchor="middle" font-size="13px" width="184px" fill="#323232" font-weight="400" align="middle" anchor="middle" family="微软雅黑" size="13px" weight="400" font-style="" opacity="1" y="37.879524724879204" transform="rotate(0)"><tspan id="SvgjsTspan1078" dy="16" x="102"><tspan id="SvgjsTspan1079" style="text-decoration:;">topics 相似词替换</tspan></tspan></text></g></g><g id="SvgjsG1080" transform="translate(317.6517621620282,801.9470996723919)"><path id="SvgjsPath1081" d="M 0 0L 206.2241620286021 0L 206.2241620286021 83.74146886410244L 0 83.74146886410244Z" stroke="rgba(50,50,50,1)" stroke-width="2" fill-opacity="1" fill="#ffffff"></path><g id="SvgjsG1082"><text id="SvgjsText1083" font-family="微软雅黑" text-anchor="middle" font-size="13px" width="187px" fill="#323232" font-weight="400" align="middle" anchor="middle" family="微软雅黑" size="13px" weight="400" font-style="" opacity="1" y="23.920734432051223" transform="rotate(0)"><tspan id="SvgjsTspan1084" dy="16" x="103.5"><tspan id="SvgjsTspan1085" style="text-decoration:;">根据论文数，year，cite 汇</tspan></tspan><tspan id="SvgjsTspan1086" dy="16" x="103.5"><tspan id="SvgjsTspan1087" style="text-decoration:;">总 topics</tspan></tspan></text></g></g><g id="SvgjsG1088" transform="translate(28.93891571898869,31.852245020055648)"><path id="SvgjsPath1089" d="M 0 4Q 0 0 4 0L 233.49144752738405 0Q 237.49144752738405 0 237.49144752738405 4L 237.49144752738405 291.44595858450623Q 237.49144752738405 295.44595858450623 233.49144752738405 295.44595858450623L 4 295.44595858450623Q 0 295.44595858450623 0 291.44595858450623Z" stroke="rgba(50,50,50,1)" stroke-width="2" fill-opacity="1" fill="#ffffcc"></path><g id="SvgjsG1090"><text id="SvgjsText1091" font-family="微软雅黑" text-anchor="middle" font-size="13px" width="228px" fill="#323232" font-weight="700" align="middle" anchor="middle" family="微软雅黑" size="13px" weight="700" font-style="" opacity="1" y="12.153282756036159" transform="rotate(0)"><tspan id="SvgjsTspan1092" dy="16" x="119"><tspan id="SvgjsTspan1093" style="text-decoration:;">准备阶段</tspan></tspan></text></g></g><g id="SvgjsG1094" transform="translate(317.8589346749442,29.012489318847656)"><path id="SvgjsPath1095" d="M 0 4Q 0 0 4 0L 467.50632774566554 0Q 471.50632774566554 0 471.50632774566554 4L 471.50632774566554 291.4285714285714Q 471.50632774566554 295.4285714285714 467.50632774566554 295.4285714285714L 4 295.4285714285714Q 0 295.4285714285714 0 291.4285714285714Z" stroke="rgba(50,50,50,1)" stroke-width="2" fill-opacity="1" fill="#ccffcc"></path><g id="SvgjsG1096"><text id="SvgjsText1097" font-family="微软雅黑" text-anchor="middle" font-size="13px" width="462px" fill="#323232" font-weight="700" align="middle" anchor="middle" family="微软雅黑" size="13px" weight="700" font-style="" opacity="1" y="12.152040816326526" transform="rotate(0)"><tspan id="SvgjsTspan1098" dy="16" x="236"><tspan id="SvgjsTspan1099" style="text-decoration:;">数据获取</tspan></tspan></text></g></g><g id="SvgjsG1100" transform="translate(817.2366589964149,29.012489318847656)"><path id="SvgjsPath1101" d="M 0 4Q 0 0 4 0L 261.3350886387648 0Q 265.3350886387648 0 265.3350886387648 4L 265.3350886387648 461.51778972430975Q 265.3350886387648 465.51778972430975 261.3350886387648 465.51778972430975L 4 465.51778972430975Q 0 465.51778972430975 0 461.51778972430975Z" stroke="rgba(50,50,50,1)" stroke-width="2" fill-opacity="1" fill="#ccffff"></path><g id="SvgjsG1102"><text id="SvgjsText1103" font-family="微软雅黑" text-anchor="middle" font-size="13px" width="256px" fill="#323232" font-weight="700" align="middle" anchor="middle" family="微软雅黑" size="13px" weight="700" font-style="" opacity="1" y="24.30127069459355" transform="rotate(0)"><tspan id="SvgjsTspan1104" dy="16" x="133"><tspan id="SvgjsTspan1105" style="text-decoration:;">数据预处理</tspan></tspan></text></g></g><g id="SvgjsG1106" transform="translate(72.03524437408157,103.86962999616347)"><path id="SvgjsPath1107" d="M 0 0L 151.2987902171983 0L 151.2987902171983 66.2857164655413L 0 66.2857164655413Z" stroke="rgba(50,50,50,1)" stroke-width="2" fill-opacity="1" fill="#ffffff"></path><g id="SvgjsG1108"><text id="SvgjsText1109" font-family="微软雅黑" text-anchor="middle" font-size="13px" width="132px" fill="#323232" font-weight="400" align="middle" anchor="middle" family="微软雅黑" size="13px" weight="400" font-style="" opacity="1" y="23.19285823277065" transform="rotate(0)"><tspan id="SvgjsTspan1110" dy="16" x="76"><tspan id="SvgjsTspan1111" style="text-decoration:;">目标网站选取</tspan></tspan></text></g></g><g id="SvgjsG1112" transform="translate(72.03524437408157,202.19384313692194)"><path id="SvgjsPath1113" d="M 0 0L 151.2987902171983 0L 151.2987902171983 54.99592607850411L 0 54.99592607850411Z" stroke="rgba(50,50,50,1)" stroke-width="2" fill-opacity="1" fill="#ffffff"></path><g id="SvgjsG1114"><text id="SvgjsText1115" font-family="微软雅黑" text-anchor="middle" font-size="13px" width="132px" fill="#323232" font-weight="400" align="middle" anchor="middle" family="微软雅黑" size="13px" weight="400" font-style="" opacity="1" y="17.547963039252057" transform="rotate(0)"><tspan id="SvgjsTspan1116" dy="16" x="76"><tspan id="SvgjsTspan1117" style="text-decoration:;">关键词选取</tspan></tspan></text></g></g><g id="SvgjsG1118" transform="translate(339.08342447086244,135.54643925322193)"><path id="SvgjsPath1119" d="M 0 0L 103.06122448979602 0L 103.06122448979602 121.64332996220412L 0 121.64332996220412Z" stroke="rgba(50,50,50,1)" stroke-width="2" fill-opacity="1" fill="#ffffff"></path><g id="SvgjsG1120"><text id="SvgjsText1121" font-family="微软雅黑" text-anchor="middle" font-size="13px" width="84px" fill="#323232" font-weight="400" align="middle" anchor="middle" family="微软雅黑" size="13px" weight="400" font-style="" opacity="1" y="50.87166498110206" transform="rotate(0)"><tspan id="SvgjsTspan1122" dy="16" x="52"><tspan id="SvgjsTspan1123" style="text-decoration:;">高级搜索</tspan></tspan></text></g></g><g id="SvgjsG1124" transform="translate(497.8589346749442,135.54643925322193)"><path id="SvgjsPath1125" d="M 0 0L 105.71428571428567 0L 105.71428571428567 121.64332996220412L 0 121.64332996220412Z" stroke="rgba(50,50,50,1)" stroke-width="2" fill-opacity="1" fill="#ffffff"></path><g id="SvgjsG1126"><text id="SvgjsText1127" font-family="微软雅黑" text-anchor="middle" font-size="13px" width="86px" fill="#323232" font-weight="400" align="middle" anchor="middle" family="微软雅黑" size="13px" weight="400" font-style="" opacity="1" y="50.87166498110206" transform="rotate(0)"><tspan id="SvgjsTspan1128" dy="16" x="53"><tspan id="SvgjsTspan1129" style="text-decoration:;">目标数据选取</tspan></tspan></text></g></g><g id="SvgjsG1130" transform="translate(663.1048748932111,134.3926653950673)"><path id="SvgjsPath1131" d="M 0 0L 103.32548835316163 0L 103.32548835316163 123.9508776785134L 0 123.9508776785134Z" stroke="rgba(50,50,50,1)" stroke-width="2" fill-opacity="1" fill="#ffffff"></path><g id="SvgjsG1132"><text id="SvgjsText1133" font-family="微软雅黑" text-anchor="middle" font-size="13px" width="84px" fill="#323232" font-weight="400" align="middle" anchor="middle" family="微软雅黑" size="13px" weight="400" font-style="" opacity="1" y="52.025438839256694" transform="rotate(0)"><tspan id="SvgjsTspan1134" dy="16" x="52"><tspan id="SvgjsTspan1135" style="text-decoration:;">爬虫获取数据</tspan></tspan></text></g></g><g id="SvgjsG1136" transform="translate(877.2161677952477,98.15534428187777)"><path id="SvgjsPath1137" d="M 0 0L 139.70866046887045 0L 139.70866046887045 63.92787459232932L 0 63.92787459232932Z" stroke="rgba(50,50,50,1)" stroke-width="2" fill-opacity="1" fill="#ffffff"></path><g id="SvgjsG1138"><text id="SvgjsText1139" font-family="微软雅黑" text-anchor="middle" font-size="13px" width="120px" fill="#323232" font-weight="400" align="middle" anchor="middle" family="微软雅黑" size="13px" weight="400" font-style="" opacity="1" y="14.01393729616466" transform="rotate(0)"><tspan id="SvgjsTspan1140" dy="16" x="70"><tspan id="SvgjsTspan1141" style="text-decoration:;">根据 url，title，</tspan></tspan><tspan id="SvgjsTspan1142" dy="16" x="70"><tspan id="SvgjsTspan1143" style="text-decoration:;">abstract 去重</tspan></tspan></text></g></g><g id="SvgjsG1144" transform="translate(878.0395701946313,206.72677285330633)"><path id="SvgjsPath1145" d="M 0 0L 139.33926552768207 0L 139.33926552768207 60.43007048532559L 0 60.43007048532559Z" stroke="rgba(50,50,50,1)" stroke-width="2" fill-opacity="1" fill="#ffffff"></path><g id="SvgjsG1146"><text id="SvgjsText1147" font-family="微软雅黑" text-anchor="middle" font-size="13px" width="120px" fill="#323232" font-weight="400" align="middle" anchor="middle" family="微软雅黑" size="13px" weight="400" font-style="" opacity="1" y="12.265035242662794" transform="rotate(0)"><tspan id="SvgjsTspan1148" dy="16" x="70"><tspan id="SvgjsTspan1149" style="text-decoration:;">year，topics 标准化</tspan></tspan><tspan id="SvgjsTspan1150" dy="16" x="70"><tspan id="SvgjsTspan1151" style="text-decoration:;">处理</tspan></tspan></text></g></g><g id="SvgjsG1152" transform="translate(877.0501532713005,309.9293220289638)"><path id="SvgjsPath1153" d="M 0 0L 140.78266344246492 0L 140.78266344246492 60.00000000000006L 0 60.00000000000006Z" stroke="rgba(50,50,50,1)" stroke-width="2" fill-opacity="1" fill="#ffffff"></path><g id="SvgjsG1154"><text id="SvgjsText1155" font-family="微软雅黑" text-anchor="middle" font-size="13px" width="121px" fill="#323232" font-weight="400" align="middle" anchor="middle" family="微软雅黑" size="13px" weight="400" font-style="" opacity="1" y="20.05000000000003" transform="rotate(0)"><tspan id="SvgjsTspan1156" dy="16" x="70.5"><tspan id="SvgjsTspan1157" style="text-decoration:;">异常值处理</tspan></tspan></text></g></g><g id="SvgjsG1158" transform="translate(873.6491435558484,404.01248931884754)"><path id="SvgjsPath1159" d="M 0 0L 147.58468287336893 0L 147.58468287336893 58.571428571428555L 0 58.571428571428555Z" stroke="rgba(50,50,50,1)" stroke-width="2" fill-opacity="1" fill="#ffffff"></path><g id="SvgjsG1160"><text id="SvgjsText1161" font-family="微软雅黑" text-anchor="middle" font-size="13px" width="128px" fill="#323232" font-weight="400" align="middle" anchor="middle" family="微软雅黑" size="13px" weight="400" font-style="" opacity="1" y="19.33571428571428" transform="rotate(0)"><tspan id="SvgjsTspan1162" dy="16" x="74"><tspan id="SvgjsTspan1163" style="text-decoration:;">空值处理</tspan></tspan></text></g></g><g id="SvgjsG1164" transform="translate(588.8874969482422,337.01248931884766)"><path id="SvgjsPath1165" d="M 25.054834677425173 124.52888206328105C -20.87902889785431 88.94920147377218 8.351611559141725 62.26444103164052 18.79112600806888 53.3695208842633C 14.61532022849802 8.894920147377219 66.8128924731338 0 87.69192137098811 17.789840294754438C 104.39514448927156 -8.894920147377219 156.59271673390734 0 156.59271673390734 26.68476044213165C 198.35077452961596 17.789840294754438 215.05399764789942 53.3695208842633 198.35077452961596 97.8441216211494C 212.966094758114 133.42380221065827 198.35077452961596 177.89840294754435 150.32900806455103 160.1085626527899C 139.8894936156239 183.23535503597068 98.13143581991525 183.23535503597068 87.69192137098811 160.1085626527899C 66.8128924731338 177.89840294754435 25.054834677425173 169.00348280016712 25.054834677425173 124.52888206328105Z" stroke="rgba(50,50,50,1)" stroke-width="2" fill-opacity="1" fill="#ffcc99"></path><g id="SvgjsG1166"><text id="SvgjsText1167" font-family="微软雅黑" text-anchor="middle" font-size="18px" width="189px" fill="#ff6666" font-weight="400" align="middle" anchor="middle" family="微软雅黑" size="18px" weight="400" font-style="" opacity="1" y="63.749201473772175" transform="rotate(0)"><tspan id="SvgjsTspan1168" dy="22" x="104.5"><tspan id="SvgjsTspan1169" style="text-decoration:;">数据日期截止到 </tspan></tspan><tspan id="SvgjsTspan1170" dy="22" x="104.5"><tspan id="SvgjsTspan1171" style="text-decoration:;">2020/09/01</tspan></tspan></text></g></g><g id="SvgjsG1172" transform="translate(66.55612791849707,609.6404526102984)"><path id="SvgjsPath1173" d="M 0 0L 142.67156856576202 0L 142.67156856576202 91.65775535391742L 0 91.65775535391742Z" stroke="rgba(50,50,50,1)" stroke-width="2" fill-opacity="1" fill="#ffffff"></path><g id="SvgjsG1174"><text id="SvgjsText1175" font-family="微软雅黑" text-anchor="middle" font-size="13px" width="123px" fill="#323232" font-weight="400" align="middle" anchor="middle" family="微软雅黑" size="13px" weight="400" font-style="" opacity="1" y="27.878877676958712" transform="rotate(0)"><tspan id="SvgjsTspan1176" dy="16" x="71.5"><tspan id="SvgjsTspan1177" style="text-decoration:;">根据论文数和 cite 排</tspan></tspan><tspan id="SvgjsTspan1178" dy="16" x="71.5"><tspan id="SvgjsTspan1179" style="text-decoration:;">序数据</tspan></tspan></text></g></g><g id="SvgjsG1180" transform="translate(63.90985508715502,785.2713270812611)"><path id="SvgjsPath1181" d="M 0 0L 147.14285714285714 0L 147.14285714285714 86.02688088295474L 0 86.02688088295474Z" stroke="rgba(50,50,50,1)" stroke-width="2" fill-opacity="1" fill="#ffffff"></path><g id="SvgjsG1182"><text id="SvgjsText1183" font-family="微软雅黑" text-anchor="middle" font-size="13px" width="128px" fill="#323232" font-weight="400" align="middle" anchor="middle" family="微软雅黑" size="13px" weight="400" font-style="" opacity="1" y="33.06344044147737" transform="rotate(0)"><tspan id="SvgjsTspan1184" dy="16" x="74"><tspan id="SvgjsTspan1185" style="text-decoration:;">绘图</tspan></tspan></text></g></g><g id="SvgjsG1186" transform="translate(240.00179181780123,162.0832188742071)"><path id="SvgjsPath1187" d="M 0 19.8L 60 19.8L 60 0L 90 30L 60 60L 60 40.2L 0 40.2L 0 19.8Z" stroke="rgba(50,50,50,1)" stroke-width="2" fill-opacity="1" fill="#ffffff"></path><g id="SvgjsG1188"><text id="SvgjsText1189" font-family="微软雅黑" text-anchor="middle" font-size="13px" width="90px" fill="#323232" font-weight="400" align="middle" anchor="middle" family="微软雅黑" size="13px" weight="400" font-style="" opacity="1" y="20.05" transform="rotate(0)"></text></g></g><g id="SvgjsG1190"><path id="SvgjsPath1191" d="M442.14464896065846 196.368104234324L470.0017918178013 196.368104234324L470.0017918178013 196.368104234324L497.8589346749442 196.368104234324" stroke="#323232" stroke-width="2" fill="none" marker-end="url(#SvgjsMarker1192)"></path></g><g id="SvgjsG1194"><path id="SvgjsPath1195" d="M603.5732203892298 196.368104234324L633.3390476412205 196.368104234324L633.3390476412205 196.368104234324L663.1048748932111 196.368104234324" stroke="#323232" stroke-width="2" fill="none" marker-end="url(#SvgjsMarker1196)"></path></g><g id="SvgjsG1198" transform="translate(774.2875061035155,170.15534646170477)"><path id="SvgjsPath1199" d="M 0 19.8L 60 19.8L 60 0L 90 30L 60 60L 60 40.2L 0 40.2L 0 19.8Z" stroke="rgba(50,50,50,1)" stroke-width="2" fill-opacity="1" fill="#ffffff"></path><g id="SvgjsG1200"><text id="SvgjsText1201" font-family="微软雅黑" text-anchor="middle" font-size="13px" width="90px" fill="#323232" font-weight="400" align="middle" anchor="middle" family="微软雅黑" size="13px" weight="400" font-style="" opacity="1" y="20.05" transform="rotate(0)"></text></g></g><g id="SvgjsG1202"><path id="SvgjsPath1203" d="M947.0704980296829 162.0832188742071L947.0704980296829 184.4049958637567L947.7092029584724 184.4049958637567L947.7092029584724 206.72677285330633" stroke="#323232" stroke-width="2" fill="none" marker-end="url(#SvgjsMarker1204)"></path></g><g id="SvgjsG1206"><path id="SvgjsPath1207" d="M947.7092029584724 267.1568433386319L947.7092029584724 288.5430826837978L947.4414849925329 288.5430826837978L947.4414849925329 309.9293220289638" stroke="#323232" stroke-width="2" fill="none" marker-end="url(#SvgjsMarker1208)"></path></g><g id="SvgjsG1210"><path id="SvgjsPath1211" d="M947.4414849925329 369.92932202896384L947.4414849925329 386.9709056739057L947.4414849925329 386.9709056739057L947.4414849925329 404.01248931884754" stroke="#323232" stroke-width="2" fill="none" marker-end="url(#SvgjsMarker1212)"></path></g><g id="SvgjsG1214" transform="translate(919.8041194002827,470.5839222499301)"><path id="SvgjsPath1215" d="M 19.8 0L 40.2 0L 40.2 60L 60 60L 30 90L 0 60L 19.8 60L 19.8 0Z" stroke="rgba(50,50,50,1)" stroke-width="2" fill-opacity="1" fill="#ffffff"></path><g id="SvgjsG1216"><text id="SvgjsText1217" font-family="微软雅黑" text-anchor="middle" font-size="13px" width="84px" fill="#323232" font-weight="400" align="middle" anchor="middle" family="微软雅黑" size="13px" weight="400" font-style="" opacity="1" y="30.55" transform="rotate(0)"></text></g></g><g id="SvgjsG1218" transform="translate(829.1756444677396,725.2713270812611)"><path id="SvgjsPath1219" d="M 0 30L 30 0L 30 19.8L 90 19.8L 90 40.2L 30 40.2L 30 60L 0 30Z" stroke="rgba(50,50,50,1)" stroke-width="2" fill-opacity="1" fill="#ffffff"></path><g id="SvgjsG1220"><text id="SvgjsText1221" font-family="微软雅黑" text-anchor="middle" font-size="13px" width="90px" fill="#323232" font-weight="400" align="middle" anchor="middle" family="微软雅黑" size="13px" weight="400" font-style="" opacity="1" y="20.05" transform="rotate(0)"></text></g></g><g id="SvgjsG1222" transform="translate(550.2875061035155,721.3561982739941)"><path id="SvgjsPath1223" d="M 0 30L 30 0L 30 19.8L 97.59999084472668 19.8L 97.59999084472668 40.2L 30 40.2L 30 60L 0 30Z" stroke="rgba(50,50,50,1)" stroke-width="2" fill-opacity="1" fill="#ffffff"></path><g id="SvgjsG1224"><text id="SvgjsText1225" font-family="微软雅黑" text-anchor="middle" font-size="13px" width="98px" fill="#323232" font-weight="400" align="middle" anchor="middle" family="微软雅黑" size="13px" weight="400" font-style="" opacity="1" y="20.05" transform="rotate(0)"></text></g></g><g id="SvgjsG1226" transform="translate(234.7626060198513,725.2713270812611)"><path id="SvgjsPath1227" d="M 0 30L 30 0L 30 19.8L 90 19.8L 90 40.2L 30 40.2L 30 60L 0 30Z" stroke="rgba(50,50,50,1)" stroke-width="2" fill-opacity="1" fill="#ffffff"></path><g id="SvgjsG1228"><text id="SvgjsText1229" font-family="微软雅黑" text-anchor="middle" font-size="13px" width="90px" fill="#323232" font-weight="400" align="middle" anchor="middle" family="微软雅黑" size="13px" weight="400" font-style="" opacity="1" y="20.05" transform="rotate(0)"></text></g></g><g id="SvgjsG1230"><path id="SvgjsPath1231" d="M993.3545965499554 719.8696365356444L993.3545965499554 735.6858569655874L993.3545965499554 735.6858569655874L993.3545965499554 751.5020773955304" stroke="#323232" stroke-width="2" fill="none" marker-end="url(#SvgjsMarker1232)"></path></g><g id="SvgjsG1234"><path id="SvgjsPath1235" d="M993.3545965499554 807.8779317423293L993.3545965499554 824.9811217613965L993.3545965499553 824.9811217613965L993.3545965499553 842.0843117804635" stroke="#323232" stroke-width="2" fill="none" marker-end="url(#SvgjsMarker1236)"></path></g><g id="SvgjsG1238"><path id="SvgjsPath1239" d="M747.2727785630148 738.2124862670896L747.2727785630148 773.0452090047095L747.1795120658888 773.0452090047095L747.1795120658888 807.8779317423293" stroke="#323232" stroke-width="2" fill="none" marker-end="url(#SvgjsMarker1240)"></path></g><g id="SvgjsG1242"><path id="SvgjsPath1243" d="M420.9778583223215 573.1606838358882L420.9778583223215 606.7597305395805L420.7638431763292 606.7597305395805L420.7638431763292 640.3587772432727" stroke="#323232" stroke-width="2" fill="none" marker-end="url(#SvgjsMarker1244)"></path></g><g id="SvgjsG1246"><path id="SvgjsPath1247" d="M420.76384317632926 736.0178266930311L420.76384317632926 768.9824631827114L420.76384317632926 768.9824631827114L420.76384317632926 801.9470996723919" stroke="#323232" stroke-width="2" fill="none" marker-end="url(#SvgjsMarker1248)"></path></g><g id="SvgjsG1250"><path id="SvgjsPath1251" d="M137.89191220137803 701.2982079642159L137.89191220137803 743.2847675227385L137.4812836585836 743.2847675227385L137.4812836585836 785.2713270812611" stroke="#323232" stroke-width="2" fill="none" marker-end="url(#SvgjsMarker1252)"></path></g><g id="SvgjsG1254" transform="translate(218.5732203892299,25.0124805995396)"><path id="SvgjsPath1255" d="M 0 41.07142857142857C 0 -13.69047619047619 122.37877126124283 -13.69047619047619 122.37877126124283 41.07142857142857Q 119.93119583601798 80.5 61.189385630621416 82.14285714285714Q 40.79292375374761 82.14285714285714 20.396461876873804 73.92857142857143L 0 82.14285714285714L 14.318316237565412 70.39642857142857Q 0 57.49999999999999 0 41.07142857142857" stroke="rgba(50,50,50,1)" stroke-width="2" fill-opacity="1" fill="#ffcc99"></path><g id="SvgjsG1256"><text id="SvgjsText1257" font-family="微软雅黑" text-anchor="middle" font-size="13px" width="103px" fill="#323232" font-weight="400" align="middle" anchor="middle" family="微软雅黑" size="13px" weight="400" font-style="" opacity="1" y="7.121428571428569" transform="rotate(0)"><tspan id="SvgjsTspan1258" dy="16" x="61.5"><tspan id="SvgjsTspan1259" style="text-decoration:;">arxiv, ieee, </tspan></tspan><tspan id="SvgjsTspan1260" dy="16" x="61.5"><tspan id="SvgjsTspan1261" style="text-decoration:;">springer, </tspan></tspan><tspan id="SvgjsTspan1262" dy="16" x="61.5"><tspan id="SvgjsTspan1263" style="text-decoration:;">science direct, </tspan></tspan><tspan id="SvgjsTspan1264" dy="16" x="61.5"><tspan id="SvgjsTspan1265" style="text-decoration:;">acm</tspan></tspan></text></g></g><g id="SvgjsG1266" transform="translate(570.716077532087,50.44105638776506)"><path id="SvgjsPath1267" d="M 0 45.85714067731584C 0 -15.28571355910528 154.28571428571433 -15.28571355910528 154.28571428571433 45.85714067731584Q 151.20000000000005 89.87999572753904 77.14285714285717 91.71428135463168Q 51.428571428571445 91.71428135463168 25.714285714285722 82.54285321916852L 0 91.71428135463168L 18.051428571428577 78.59913912091935Q 0 64.19999694824217 0 45.85714067731584" stroke="rgba(50,50,50,1)" stroke-width="2" fill-opacity="1" fill="#ffcc99"></path><g id="SvgjsG1268"><text id="SvgjsText1269" font-family="微软雅黑" text-anchor="middle" font-size="13px" width="135px" fill="#323232" font-weight="400" align="middle" anchor="middle" family="微软雅黑" size="13px" weight="400" font-style="" opacity="1" y="19.90714067731584" transform="rotate(0)"><tspan id="SvgjsTspan1270" dy="16" x="77.5"><tspan id="SvgjsTspan1271" style="text-decoration:;">year, origin, title, </tspan></tspan><tspan id="SvgjsTspan1272" dy="16" x="77.5"><tspan id="SvgjsTspan1273" style="text-decoration:;">topics, publisher, cite, </tspan></tspan><tspan id="SvgjsTspan1274" dy="16" x="77.5"><tspan id="SvgjsTspan1275" style="text-decoration:;">authors, url, abstract</tspan></tspan></text></g></g><g id="SvgjsG1276" transform="translate(26.229223606796488,274.72677067347905)"><path id="SvgjsPath1277" d="M 28.971428571428564 112.00000000000007C -24.14285714285714 80.00000000000006 9.657142857142857 56.000000000000036 21.728571428571424 48.000000000000036C 16.9 8.000000000000005 77.25714285714285 0 101.39999999999998 16.00000000000001C 120.7142857142857 -8.000000000000005 181.07142857142856 0 181.07142857142856 24.000000000000018C 229.3571428571428 16.00000000000001 248.67142857142855 48.000000000000036 229.3571428571428 88.00000000000007C 246.2571428571428 120.00000000000009 229.3571428571428 160.0000000000001 173.8285714285714 144.0000000000001C 161.75714285714284 164.80000000000013 113.47142857142855 164.80000000000013 101.39999999999998 144.0000000000001C 77.25714285714285 160.0000000000001 28.971428571428564 152.0000000000001 28.971428571428564 112.00000000000007Z" stroke="rgba(50,50,50,1)" stroke-width="2" fill-opacity="1" fill="#ffcc99"></path><g id="SvgjsG1278"><text id="SvgjsText1279" font-family="微软雅黑" text-anchor="middle" font-size="13px" width="222px" fill="#323232" font-weight="400" align="middle" anchor="middle" family="微软雅黑" size="13px" weight="400" font-style="" opacity="1" y="38.050000000000054" transform="rotate(0)"><tspan id="SvgjsTspan1280" dy="16" x="121"><tspan id="SvgjsTspan1281" style="text-decoration:;">1. 摘要含blockchain；2. 标题含</tspan></tspan><tspan id="SvgjsTspan1282" dy="16" x="121"><tspan id="SvgjsTspan1283" style="text-decoration:;">survey，review，tutorial，</tspan></tspan><tspan id="SvgjsTspan1284" dy="16" x="121"><tspan id="SvgjsTspan1285" style="text-decoration:;">overview，smart contract(s)，</tspan></tspan><tspan id="SvgjsTspan1286" dy="16" x="121"><tspan id="SvgjsTspan1287" style="text-decoration:;">cryptocurrency(ies)，consensus </tspan></tspan><tspan id="SvgjsTspan1288" dy="16" x="121"><tspan id="SvgjsTspan1289" style="text-decoration:;">(procotol/algorithm)</tspan></tspan></text></g></g><g id="SvgjsG1290" transform="translate(1038.5732203892298,609.6404526102984)"><path id="SvgjsPath1291" d="M 0 35C 0 -11.666666666666666 90 -11.666666666666666 90 35Q 88.2 68.6 45 70Q 30 70 15 63L 0 70L 10.530000000000001 59.99Q 0 49 0 35" stroke="rgba(50,50,50,1)" stroke-width="2" fill-opacity="1" fill="#ffcc99"></path><g id="SvgjsG1292"><text id="SvgjsText1293" font-family="微软雅黑" text-anchor="middle" font-size="13px" width="70px" fill="#323232" font-weight="400" align="middle" anchor="middle" family="微软雅黑" size="13px" weight="400" font-style="" opacity="1" y="17.05" transform="rotate(0)"><tspan id="SvgjsTspan1294" dy="16" x="45"><tspan id="SvgjsTspan1295" style="text-decoration:;">only </tspan></tspan><tspan id="SvgjsTspan1296" dy="16" x="45"><tspan id="SvgjsTspan1297" style="text-decoration:;">english</tspan></tspan></text></g></g><g id="SvgjsG1298" transform="translate(1047.1446489606583,717.4410694667271)"><path id="SvgjsPath1299" d="M 0 33.915128807267024C 0 -11.305042935755674 105 -11.305042935755674 105 33.915128807267024Q 102.89999999999999 66.47365246224336 52.5 67.83025761453405Q 35 67.83025761453405 17.5 61.047231853080646L 0 67.83025761453405L 12.285 58.13053077565568Q 0 47.48118033017383 0 33.915128807267024" stroke="rgba(50,50,50,1)" stroke-width="2" fill-opacity="1" fill="#ffcc99"></path><g id="SvgjsG1300"><text id="SvgjsText1301" font-family="微软雅黑" text-anchor="middle" font-size="13px" width="85px" fill="#323232" font-weight="400" align="middle" anchor="middle" family="微软雅黑" size="13px" weight="400" font-style="" opacity="1" y="7.965128807267024" transform="rotate(0)"><tspan id="SvgjsTspan1302" dy="16" x="52.5"><tspan id="SvgjsTspan1303" style="text-decoration:;">base on the </tspan></tspan><tspan id="SvgjsTspan1304" dy="16" x="52.5"><tspan id="SvgjsTspan1305" style="text-decoration:;">allow list and </tspan></tspan><tspan id="SvgjsTspan1306" dy="16" x="52.5"><tspan id="SvgjsTspan1307" style="text-decoration:;">deny list</tspan></tspan></text></g></g><g id="SvgjsG1308" transform="translate(1044.2875061035156,807.0124936785016)"><path id="SvgjsPath1309" d="M 0 35C 0 -11.666666666666666 100.71428571428555 -11.666666666666666 100.71428571428555 35Q 98.69999999999983 68.6 50.357142857142776 70Q 33.57142857142852 70 16.78571428571426 63L 0 70L 11.78357142857141 59.99Q 0 49 0 35" stroke="rgba(50,50,50,1)" stroke-width="2" fill-opacity="1" fill="#ffcc99"></path><g id="SvgjsG1310"><text id="SvgjsText1311" font-family="微软雅黑" text-anchor="middle" font-size="13px" width="81px" fill="#323232" font-weight="400" align="middle" anchor="middle" family="微软雅黑" size="13px" weight="400" font-style="" opacity="1" y="17.05" transform="rotate(0)"><tspan id="SvgjsTspan1312" dy="16" x="50.5"><tspan id="SvgjsTspan1313" style="text-decoration:;">base on the </tspan></tspan><tspan id="SvgjsTspan1314" dy="16" x="50.5"><tspan id="SvgjsTspan1315" style="text-decoration:;">deny list</tspan></tspan></text></g></g></svg>