<svg id="SvgjsSvg1262" width="1115.5749816894531" height="975.637451171875" xmlns="http://www.w3.org/2000/svg" version="1.1" xmlns:xlink="http://www.w3.org/1999/xlink" xmlns:svgjs="http://svgjs.com/svgjs"><defs id="SvgjsDefs1263"><marker id="SvgjsMarker1450" markerWidth="16" markerHeight="12" refX="16" refY="6" viewBox="0 0 16 12" orient="auto" markerUnits="userSpaceOnUse" stroke-dasharray="0,0"><path id="SvgjsPath1451" d="M0,2 L14,6 L0,11 L0,2" fill="#323232" stroke="#323232" stroke-width="2"></path></marker><marker id="SvgjsMarker1454" markerWidth="16" markerHeight="12" refX="16" refY="6" viewBox="0 0 16 12" orient="auto" markerUnits="userSpaceOnUse" stroke-dasharray="0,0"><path id="SvgjsPath1455" d="M0,2 L14,6 L0,11 L0,2" fill="#323232" stroke="#323232" stroke-width="2"></path></marker><marker id="SvgjsMarker1462" markerWidth="16" markerHeight="12" refX="16" refY="6" viewBox="0 0 16 12" orient="auto" markerUnits="userSpaceOnUse" stroke-dasharray="0,0"><path id="SvgjsPath1463" d="M0,2 L14,6 L0,11 L0,2" fill="#323232" stroke="#323232" stroke-width="2"></path></marker><marker id="SvgjsMarker1466" markerWidth="16" markerHeight="12" refX="16" refY="6" viewBox="0 0 16 12" orient="auto" markerUnits="userSpaceOnUse" stroke-dasharray="0,0"><path id="SvgjsPath1467" d="M0,2 L14,6 L0,11 L0,2" fill="#323232" stroke="#323232" stroke-width="2"></path></marker><marker id="SvgjsMarker1470" markerWidth="16" markerHeight="12" refX="16" refY="6" viewBox="0 0 16 12" orient="auto" markerUnits="userSpaceOnUse" stroke-dasharray="0,0"><path id="SvgjsPath1471" d="M0,2 L14,6 L0,11 L0,2" fill="#323232" stroke="#323232" stroke-width="2"></path></marker><marker id="SvgjsMarker1490" markerWidth="16" markerHeight="12" refX="16" refY="6" viewBox="0 0 16 12" orient="auto" markerUnits="userSpaceOnUse" stroke-dasharray="0,0"><path id="SvgjsPath1491" d="M0,2 L14,6 L0,11 L0,2" fill="#323232" stroke="#323232" stroke-width="2"></path></marker><marker id="SvgjsMarker1494" markerWidth="16" markerHeight="12" refX="16" refY="6" viewBox="0 0 16 12" orient="auto" markerUnits="userSpaceOnUse" stroke-dasharray="0,0"><path id="SvgjsPath1495" d="M0,2 L14,6 L0,11 L0,2" fill="#323232" stroke="#323232" stroke-width="2"></path></marker><marker id="SvgjsMarker1498" markerWidth="16" markerHeight="12" refX="16" refY="6" viewBox="0 0 16 12" orient="auto" markerUnits="userSpaceOnUse" stroke-dasharray="0,0"><path id="SvgjsPath1499" d="M0,2 L14,6 L0,11 L0,2" fill="#323232" stroke="#323232" stroke-width="2"></path></marker><marker id="SvgjsMarker1502" markerWidth="16" markerHeight="12" refX="16" refY="6" viewBox="0 0 16 12" orient="auto" markerUnits="userSpaceOnUse" stroke-dasharray="0,0"><path id="SvgjsPath1503" d="M0,2 L14,6 L0,11 L0,2" fill="#323232" stroke="#323232" stroke-width="2"></path></marker><marker id="SvgjsMarker1506" markerWidth="16" markerHeight="12" refX="16" refY="6" viewBox="0 0 16 12" orient="auto" markerUnits="userSpaceOnUse" stroke-dasharray="0,0"><path id="SvgjsPath1507" d="M0,2 L14,6 L0,11 L0,2" fill="#323232" stroke="#323232" stroke-width="2"></path></marker></defs><g id="SvgjsG1264" transform="translate(608.5805536419024,534.199966430664)"><path id="SvgjsPath1265" d="M 0 4Q 0 0 4 0L 478.04023493231614 0Q 482.04023493231614 0 482.04023493231614 4L 482.04023493231614 411.9428863525392Q 482.04023493231614 415.9428863525392 478.04023493231614 415.9428863525392L 4 415.9428863525392Q 0 415.9428863525392 0 411.9428863525392Z" stroke="rgba(50,50,50,1)" stroke-width="2" fill-opacity="1" fill="#cce5ff"></path><g id="SvgjsG1266"><text id="SvgjsText1267" font-family="微软雅黑" text-anchor="middle" font-size="19px" width="473px" fill="#323232" font-weight="700" align="middle" anchor="middle" family="微软雅黑" size="19px" weight="700" font-style="" opacity="1" y="15.860206168038511" transform="rotate(0)"><tspan id="SvgjsTspan1268" dy="23" x="241.5"><tspan id="SvgjsTspan1269" style="text-decoration:;">数据过滤</tspan></tspan></text></g></g><g id="SvgjsG1270" transform="translate(287.1278188534089,368.6470928054447)"><path id="SvgjsPath1271" d="M 0 4Q 0 0 4 0L 274.1596567325285 0Q 278.1596567325285 0 278.1596567325285 4L 278.1596567325285 577.4957599777584Q 278.1596567325285 581.4957599777584 274.1596567325285 581.4957599777584L 4 581.4957599777584Q 0 581.4957599777584 0 577.4957599777584Z" stroke="rgba(50,50,50,1)" stroke-width="2" fill-opacity="1" fill="#e5ccff"></path><g id="SvgjsG1272"><text id="SvgjsText1273" font-family="微软雅黑" text-anchor="middle" font-size="19px" width="269px" fill="#323232" font-weight="700" align="middle" anchor="middle" family="微软雅黑" size="19px" weight="700" font-style="" opacity="1" y="27.68541142698274" transform="rotate(0)"><tspan id="SvgjsTspan1274" dy="23" x="139.5"><tspan id="SvgjsTspan1275" style="text-decoration:;">数据分析</tspan></tspan></text></g></g><g id="SvgjsG1276" transform="translate(25.00176130022318,454.9999705723353)"><path id="SvgjsPath1277" d="M 0 4Q 0 0 4 0L 224.57142857142856 0Q 228.57142857142856 0 228.57142857142856 4L 228.57142857142856 485.74615786391496Q 228.57142857142856 489.74615786391496 224.57142857142856 489.74615786391496L 4 489.74615786391496Q 0 489.74615786391496 0 485.74615786391496Z" stroke="rgba(50,50,50,1)" stroke-width="2" fill-opacity="1" fill="#ffcce6"></path><g id="SvgjsG1278"><text id="SvgjsText1279" font-family="微软雅黑" text-anchor="middle" font-size="19px" width="219px" fill="#323232" font-weight="700" align="middle" anchor="middle" family="微软雅黑" size="19px" weight="700" font-style="" opacity="1" y="21.131868418851063" transform="rotate(0)"><tspan id="SvgjsTspan1280" dy="23" x="114.5"><tspan id="SvgjsTspan1281" style="text-decoration:;">数据可视化</tspan></tspan></text></g></g><g id="SvgjsG1282" transform="translate(641.258020504936,590.5262551592268)"><path id="SvgjsPath1283" d="M 0 4Q 0 0 4 0L 193.74372335667113 0Q 197.74372335667113 0 197.74372335667113 4L 197.74372335667113 341.1016776146457Q 197.74372335667113 345.1016776146457 193.74372335667113 345.1016776146457L 4 345.1016776146457Q 0 345.1016776146457 0 341.1016776146457Z" stroke="rgba(50,50,50,1)" stroke-width="2" fill-opacity="1" fill="#99ffcc"></path><g id="SvgjsG1284"><text id="SvgjsText1285" font-family="微软雅黑" text-anchor="middle" font-size="17px" width="188px" fill="#323232" font-weight="700" align="middle" anchor="middle" family="微软雅黑" size="17px" weight="700" font-style="" opacity="1" y="12.600119829617551" transform="rotate(0)"><tspan id="SvgjsTspan1286" dy="21" x="99"><tspan id="SvgjsTspan1287" style="text-decoration:;">人工过滤（双向过滤）</tspan></tspan></text></g></g><g id="SvgjsG1288" transform="translate(868.380417665895,589.5714111328124)"><path id="SvgjsPath1289" d="M 0 4Q 0 0 4 0L 195.70263923568905 0Q 199.70263923568905 0 199.70263923568905 4L 199.70263923568905 343.0113656674745Q 199.70263923568905 347.0113656674745 195.70263923568905 347.0113656674745L 4 347.0113656674745Q 0 347.0113656674745 0 343.0113656674745Z" stroke="rgba(50,50,50,1)" stroke-width="2" fill-opacity="1" fill="#ff99cc"></path><g id="SvgjsG1290"><text id="SvgjsText1291" font-family="微软雅黑" text-anchor="middle" font-size="17px" width="190px" fill="#323232" font-weight="700" align="middle" anchor="middle" family="微软雅黑" size="17px" weight="700" font-style="" opacity="1" y="12.736526119105317" transform="rotate(0)"><tspan id="SvgjsTspan1292" dy="21" x="100"><tspan id="SvgjsTspan1293" style="text-decoration:;">自动过滤</tspan></tspan></text></g></g><g id="SvgjsG1294" transform="translate(897.0905058716462,677.7999877929688)"><path id="SvgjsPath1295" d="M 0 0L 154.55636325775413 0L 154.55636325775413 76L 0 76Z" stroke="rgba(50,50,50,1)" stroke-width="2" fill-opacity="1" fill="#ff6666"></path><g id="SvgjsG1296"><text id="SvgjsText1297" font-family="微软雅黑" text-anchor="middle" font-size="15px" width="135px" fill="#323232" font-weight="400" align="middle" anchor="middle" family="微软雅黑" size="15px" weight="400" font-style="" opacity="1" y="26.75" transform="rotate(0)"><tspan id="SvgjsTspan1298" dy="18" x="77.5"><tspan id="SvgjsTspan1299" style="text-decoration:;">正则表达式过滤</tspan></tspan></text></g></g><g id="SvgjsG1300" transform="translate(897.4706335588056,808.1546337063762)"><path id="SvgjsPath1301" d="M 0 0L 153.7961078834353 0L 153.7961078834353 72.62529498459742L 0 72.62529498459742Z" stroke="rgba(50,50,50,1)" stroke-width="2" fill-opacity="1" fill="#ffffff"></path><g id="SvgjsG1302"><text id="SvgjsText1303" font-family="&quot;Times New Roman&quot;" text-anchor="middle" font-size="15px" width="134px" fill="#323232" font-weight="400" align="middle" anchor="middle" family="&quot;Times New Roman&quot;" size="15px" weight="400" font-style="" opacity="1" y="6.562647492298709" transform="rotate(0)"><tspan id="SvgjsTspan1304" dy="18" x="77"><tspan id="SvgjsTspan1305" style="text-decoration:;">根据过滤结果将原</tspan></tspan><tspan id="SvgjsTspan1306" dy="18" x="77"><tspan id="SvgjsTspan1307" style="text-decoration:;">始数据划分为 </tspan></tspan><tspan id="SvgjsTspan1308" dy="18" x="77"><tspan id="SvgjsTspan1309" style="text-decoration:;">filtered 和 no filtered</tspan></tspan></text></g></g><g id="SvgjsG1310" transform="translate(679.9347320991105,815.4401162770974)"><path id="SvgjsPath1311" d="M 0 0L 120.39030016832203 0L 120.39030016832203 67.3598715158713L 0 67.3598715158713Z" stroke="rgba(50,50,50,1)" stroke-width="2" fill-opacity="1" fill="#ff6666"></path><g id="SvgjsG1312"><text id="SvgjsText1313" font-family="&quot;Times New Roman&quot;" text-anchor="middle" font-size="15px" width="101px" fill="#323232" font-weight="400" align="middle" anchor="middle" family="&quot;Times New Roman&quot;" size="15px" weight="400" font-style="" opacity="1" y="22.429935757935652" transform="rotate(0)"><tspan id="SvgjsTspan1314" dy="18" x="60.5"><tspan id="SvgjsTspan1315" style="text-decoration:;">abstract 过滤</tspan></tspan></text></g></g><g id="SvgjsG1316" transform="translate(679.9347320991105,675.3333180745442)"><path id="SvgjsPath1317" d="M 0 0L 120.39030016832191 0L 120.39030016832191 67.97342606317966L 0 67.97342606317966Z" stroke="rgba(50,50,50,1)" stroke-width="2" fill-opacity="1" fill="#ff6666"></path><g id="SvgjsG1318"><text id="SvgjsText1319" font-family="&quot;Times New Roman&quot;" text-anchor="middle" font-size="15px" width="101px" fill="#323232" font-weight="400" align="middle" anchor="middle" family="&quot;Times New Roman&quot;" size="15px" weight="400" font-style="" opacity="1" y="13.23671303158983" transform="rotate(0)"><tspan id="SvgjsTspan1320" dy="18" x="60.5"><tspan id="SvgjsTspan1321" style="text-decoration:;">title 结合 topics </tspan></tspan><tspan id="SvgjsTspan1322" dy="18" x="60.5"><tspan id="SvgjsTspan1323" style="text-decoration:;">过滤</tspan></tspan></text></g></g><g id="SvgjsG1324" transform="translate(329.8659684806753,480.1865009640977)"><path id="SvgjsPath1325" d="M 0 0L 179.45248748543514 0L 179.45248748543514 88.00002616772258L 0 88.00002616772258Z" stroke="rgba(50,50,50,1)" stroke-width="2" fill-opacity="1" fill="#ff6666"></path><g id="SvgjsG1326"><text id="SvgjsText1327" font-family="&quot;Times New Roman&quot;" text-anchor="middle" font-size="15px" width="160px" fill="#323232" font-weight="400" align="middle" anchor="middle" family="&quot;Times New Roman&quot;" size="15px" weight="400" font-style="" opacity="1" y="32.75001308386129" transform="rotate(0)"><tspan id="SvgjsTspan1328" dy="18" x="90"><tspan id="SvgjsTspan1329" style="text-decoration:;">topics 分析</tspan></tspan></text></g></g><g id="SvgjsG1330" transform="translate(332.2551833628217,636.3462574068469)"><path id="SvgjsPath1331" d="M 0 0L 175.00025163755652 0L 175.00025163755652 100.14072118297963L 0 100.14072118297963Z" stroke="rgba(50,50,50,1)" stroke-width="2" fill-opacity="1" fill="#ffffff"></path><g id="SvgjsG1332"><text id="SvgjsText1333" font-family="微软雅黑" text-anchor="middle" font-size="15px" width="156px" fill="#323232" font-weight="400" align="middle" anchor="middle" family="微软雅黑" size="15px" weight="400" font-style="" opacity="1" y="38.820360591489816" transform="rotate(0)"><tspan id="SvgjsTspan1334" dy="18" x="88"><tspan id="SvgjsTspan1335" style="text-decoration:;">标准化并保存分析结果</tspan></tspan></text></g></g><g id="SvgjsG1336" transform="translate(333.36601735873575,799.3631512645376)"><path id="SvgjsPath1337" d="M 0 0L 172.77858364572842 0L 172.77858364572842 90.20825986827481L 0 90.20825986827481Z" stroke="rgba(50,50,50,1)" stroke-width="2" fill-opacity="1" fill="#ffffff"></path><g id="SvgjsG1338"><text id="SvgjsText1339" font-family="&quot;Times New Roman&quot;" text-anchor="middle" font-size="15px" width="153px" fill="#323232" font-weight="400" align="middle" anchor="middle" family="&quot;Times New Roman&quot;" size="15px" weight="400" font-style="" opacity="1" y="24.354129934137404" transform="rotate(0)"><tspan id="SvgjsTspan1340" dy="18" x="86.5"><tspan id="SvgjsTspan1341" style="text-decoration:;">根据论文数，year，cite </tspan></tspan><tspan id="SvgjsTspan1342" dy="18" x="86.5"><tspan id="SvgjsTspan1343" style="text-decoration:;">汇总 topics</tspan></tspan></text></g></g><g id="SvgjsG1344" transform="translate(34.2874755859375,27.839725183629866)"><path id="SvgjsPath1345" d="M 0 4Q 0 0 4 0L 228.1428571428571 0Q 232.1428571428571 0 232.1428571428571 4L 232.1428571428571 370.8269122370243Q 232.1428571428571 374.8269122370243 228.1428571428571 374.8269122370243L 4 374.8269122370243Q 0 374.8269122370243 0 370.8269122370243Z" stroke="rgba(50,50,50,1)" stroke-width="2" fill-opacity="1" fill="#ffffcc"></path><g id="SvgjsG1346"><text id="SvgjsText1347" font-family="微软雅黑" text-anchor="middle" font-size="19px" width="223px" fill="#323232" font-weight="700" align="middle" anchor="middle" family="微软雅黑" size="19px" weight="700" font-style="" opacity="1" y="12.923350874073163" transform="rotate(0)"><tspan id="SvgjsTspan1348" dy="23" x="116.5"><tspan id="SvgjsTspan1349" style="text-decoration:;">准备阶段</tspan></tspan></text></g></g><g id="SvgjsG1350" transform="translate(317.6667484693128,24.999969482421875)"><path id="SvgjsPath1351" d="M 0 4Q 0 0 4 0L 467.50632774566554 0Q 471.50632774566554 0 471.50632774566554 4L 471.50632774566554 291.4285714285714Q 471.50632774566554 295.4285714285714 467.50632774566554 295.4285714285714L 4 295.4285714285714Q 0 295.4285714285714 0 291.4285714285714Z" stroke="rgba(50,50,50,1)" stroke-width="2" fill-opacity="1" fill="#ccffcc"></path><g id="SvgjsG1352"><text id="SvgjsText1353" font-family="微软雅黑" text-anchor="middle" font-size="19px" width="462px" fill="#323232" font-weight="700" align="middle" anchor="middle" family="微软雅黑" size="19px" weight="700" font-style="" opacity="1" y="7.2520408163265255" transform="rotate(0)"><tspan id="SvgjsTspan1354" dy="23" x="236"><tspan id="SvgjsTspan1355" style="text-decoration:;">数据获取</tspan></tspan></text></g></g><g id="SvgjsG1356" transform="translate(817.1365445633222,24.999969482421875)"><path id="SvgjsPath1357" d="M 0 4Q 0 0 4 0L 261.3350886387648 0Q 265.3350886387648 0 265.3350886387648 4L 265.3350886387648 461.51778972430975Q 265.3350886387648 465.51778972430975 261.3350886387648 465.51778972430975L 4 465.51778972430975Q 0 465.51778972430975 0 461.51778972430975Z" stroke="rgba(50,50,50,1)" stroke-width="2" fill-opacity="1" fill="#ccffff"></path><g id="SvgjsG1358"><text id="SvgjsText1359" font-family="微软雅黑" text-anchor="middle" font-size="19px" width="256px" fill="#323232" font-weight="700" align="middle" anchor="middle" family="微软雅黑" size="19px" weight="700" font-style="" opacity="1" y="19.40127069459355" transform="rotate(0)"><tspan id="SvgjsTspan1360" dy="23" x="133"><tspan id="SvgjsTspan1361" style="text-decoration:;">数据预处理</tspan></tspan></text></g></g><g id="SvgjsG1362" transform="translate(88.72768002840874,267.14432350220613)"><path id="SvgjsPath1363" d="M 0 0L 137.46049658054383 0L 137.46049658054383 68.60317805456742L 0 68.60317805456742Z" stroke="rgba(50,50,50,1)" stroke-width="2" fill-opacity="1" fill="#ffffff"></path><g id="SvgjsG1364"><text id="SvgjsText1365" font-family="微软雅黑" text-anchor="middle" font-size="15px" width="118px" fill="#323232" font-weight="400" align="middle" anchor="middle" family="微软雅黑" size="15px" weight="400" font-style="" opacity="1" y="23.05158902728371" transform="rotate(0)"><tspan id="SvgjsTspan1366" dy="18" x="69"><tspan id="SvgjsTspan1367" style="text-decoration:;">目标网站选取</tspan></tspan></text></g></g><g id="SvgjsG1368" transform="translate(90.71198613276209,118.66663275824652)"><path id="SvgjsPath1369" d="M 0 0L 135.47619047619048 0L 135.47619047619048 78.33154026200339L 0 78.33154026200339Z" stroke="rgba(50,50,50,1)" stroke-width="2" fill-opacity="1" fill="#ff6666"></path><g id="SvgjsG1370"><text id="SvgjsText1371" font-family="微软雅黑" text-anchor="middle" font-size="15px" width="116px" fill="#323232" font-weight="400" align="middle" anchor="middle" family="微软雅黑" size="15px" weight="400" font-style="" opacity="1" y="27.915770131001693" transform="rotate(0)"><tspan id="SvgjsTspan1372" dy="18" x="68"><tspan id="SvgjsTspan1373" style="text-decoration:;">关键词选取</tspan></tspan></text></g></g><g id="SvgjsG1374" transform="translate(342.00551689791484,131.53391941679615)"><path id="SvgjsPath1375" d="M 0 0L 103.06122448979602 0L 103.06122448979602 121.64332996220412L 0 121.64332996220412Z" stroke="rgba(50,50,50,1)" stroke-width="2" fill-opacity="1" fill="#ff6666"></path><g id="SvgjsG1376"><text id="SvgjsText1377" font-family="微软雅黑" text-anchor="middle" font-size="15px" width="84px" fill="#323232" font-weight="400" align="middle" anchor="middle" family="微软雅黑" size="15px" weight="400" font-style="" opacity="1" y="49.57166498110206" transform="rotate(0)"><tspan id="SvgjsTspan1378" dy="18" x="52"><tspan id="SvgjsTspan1379" style="text-decoration:;">高级搜索</tspan></tspan></text></g></g><g id="SvgjsG1380" transform="translate(497.6667484693128,131.53391941679615)"><path id="SvgjsPath1381" d="M 0 0L 111.50632774566566 0L 111.50632774566566 121.64332996220412L 0 121.64332996220412Z" stroke="rgba(50,50,50,1)" stroke-width="2" fill-opacity="1" fill="#ffffff"></path><g id="SvgjsG1382"><text id="SvgjsText1383" font-family="微软雅黑" text-anchor="middle" font-size="15px" width="92px" fill="#323232" font-weight="400" align="middle" anchor="middle" family="微软雅黑" size="15px" weight="400" font-style="" opacity="1" y="49.57166498110206" transform="rotate(0)"><tspan id="SvgjsTspan1384" dy="18" x="56"><tspan id="SvgjsTspan1385" style="text-decoration:;">目标数据选取</tspan></tspan></text></g></g><g id="SvgjsG1386" transform="translate(655.810083683558,130.38014555864152)"><path id="SvgjsPath1387" d="M 0 0L 113.04145356502431 0L 113.04145356502431 123.9508776785134L 0 123.9508776785134Z" stroke="rgba(50,50,50,1)" stroke-width="2" fill-opacity="1" fill="#ff6666"></path><g id="SvgjsG1388"><text id="SvgjsText1389" font-family="微软雅黑" text-anchor="middle" font-size="15px" width="94px" fill="#323232" font-weight="400" align="middle" anchor="middle" family="微软雅黑" size="15px" weight="400" font-style="" opacity="1" y="50.7254388392567" transform="rotate(0)"><tspan id="SvgjsTspan1390" dy="18" x="57"><tspan id="SvgjsTspan1391" style="text-decoration:;">数据采集</tspan></tspan></text></g></g><g id="SvgjsG1392" transform="translate(877.487040325005,100.14282444545199)"><path id="SvgjsPath1393" d="M 0 0L 139.70866046887045 0L 139.70866046887045 63.92787459232932L 0 63.92787459232932Z" stroke="rgba(50,50,50,1)" stroke-width="2" fill-opacity="1" fill="#ffffff"></path><g id="SvgjsG1394"><text id="SvgjsText1395" font-family="&quot;Times New Roman&quot;" text-anchor="middle" font-size="15px" width="120px" fill="#323232" font-weight="400" align="middle" anchor="middle" family="&quot;Times New Roman&quot;" size="15px" weight="400" font-style="" opacity="1" y="11.213937296164659" transform="rotate(0)"><tspan id="SvgjsTspan1396" dy="18" x="70"><tspan id="SvgjsTspan1397" style="text-decoration:;">year，topics，cite </tspan></tspan><tspan id="SvgjsTspan1398" dy="18" x="70"><tspan id="SvgjsTspan1399" style="text-decoration:;">填充</tspan></tspan></text></g></g><g id="SvgjsG1400" transform="translate(877.4932591516396,209.06595204168923)"><path id="SvgjsPath1401" d="M 0 0L 139.69622281560146 0L 139.69622281560146 59.95238440377369L 0 59.95238440377369Z" stroke="rgba(50,50,50,1)" stroke-width="2" fill-opacity="1" fill="#ff6666"></path><g id="SvgjsG1402"><text id="SvgjsText1403" font-family="&quot;Times New Roman&quot;" text-anchor="middle" font-size="15px" width="120px" fill="#323232" font-weight="400" align="middle" anchor="middle" family="&quot;Times New Roman&quot;" size="15px" weight="400" font-style="" opacity="1" y="9.226192201886846" transform="rotate(0)"><tspan id="SvgjsTspan1404" dy="18" x="70"><tspan id="SvgjsTspan1405" style="text-decoration:;">year，topics 标准</tspan></tspan><tspan id="SvgjsTspan1406" dy="18" x="70"><tspan id="SvgjsTspan1407" style="text-decoration:;">化</tspan></tspan></text></g></g><g id="SvgjsG1408" transform="translate(876.9500388382078,305.916802192538)"><path id="SvgjsPath1409" d="M 0 0L 140.78266344246492 0L 140.78266344246492 60.00000000000006L 0 60.00000000000006Z" stroke="rgba(50,50,50,1)" stroke-width="2" fill-opacity="1" fill="#ffffff"></path><g id="SvgjsG1410"><text id="SvgjsText1411" font-family="&quot;Times New Roman&quot;" text-anchor="middle" font-size="15px" width="121px" fill="#323232" font-weight="400" align="middle" anchor="middle" family="&quot;Times New Roman&quot;" size="15px" weight="400" font-style="" opacity="1" y="9.250000000000028" transform="rotate(0)"><tspan id="SvgjsTspan1412" dy="18" x="70.5"><tspan id="SvgjsTspan1413" style="text-decoration:;">根据 url，title，</tspan></tspan><tspan id="SvgjsTspan1414" dy="18" x="70.5"><tspan id="SvgjsTspan1415" style="text-decoration:;">abstract 去重</tspan></tspan></text></g></g><g id="SvgjsG1416" transform="translate(873.5490291227557,399.99996948242176)"><path id="SvgjsPath1417" d="M 0 0L 147.58468287336893 0L 147.58468287336893 58.571428571428555L 0 58.571428571428555Z" stroke="rgba(50,50,50,1)" stroke-width="2" fill-opacity="1" fill="#ffffff"></path><g id="SvgjsG1418"><text id="SvgjsText1419" font-family="微软雅黑" text-anchor="middle" font-size="15px" width="128px" fill="#323232" font-weight="400" align="middle" anchor="middle" family="微软雅黑" size="15px" weight="400" font-style="" opacity="1" y="18.035714285714278" transform="rotate(0)"><tspan id="SvgjsTspan1420" dy="18" x="74"><tspan id="SvgjsTspan1421" style="text-decoration:;">移除空值</tspan></tspan></text></g></g><g id="SvgjsG1422" transform="translate(587.2207997639974,332.9999694824219)"><path id="SvgjsPath1423" d="M 27.16800231933592 134.7999999999999C -22.640001932779935 96.28571428571422 9.056000773111974 67.39999999999995 20.376001739501937 57.77142857142853C 15.848001352945955 9.628571428571423 72.44800618489579 0 95.08800811767571 19.257142857142846C 113.20000966389966 -9.628571428571423 169.8000144958495 0 169.8000144958495 28.885714285714265C 215.08001836140934 19.257142857142846 233.19201990763332 57.77142857142853 215.08001836140934 105.91428571428565C 230.92801971435532 144.42857142857133 215.08001836140934 192.57142857142844 163.0080139160155 173.3142857142856C 151.68801294962554 198.3485714285713 106.40800908406568 198.3485714285713 95.08800811767571 173.3142857142856C 72.44800618489579 192.57142857142844 27.16800231933592 182.942857142857 27.16800231933592 134.7999999999999Z" stroke="rgba(50,50,50,1)" stroke-width="2" fill-opacity="1" fill="#ffcc99"></path><g id="SvgjsG1424"><text id="SvgjsText1425" font-family="微软雅黑" text-anchor="middle" font-size="24px" width="207px" fill="#ff3333" font-weight="400" align="middle" anchor="middle" family="微软雅黑" size="24px" weight="400" font-style="" opacity="1" y="61.18571428571422" transform="rotate(0)"><tspan id="SvgjsTspan1426" dy="30" x="113.5"><tspan id="SvgjsTspan1427" style="text-decoration:;">数据日期截止到 </tspan></tspan><tspan id="SvgjsTspan1428" dy="30" x="113.5"><tspan id="SvgjsTspan1429" style="text-decoration:;">2020/10/23</tspan></tspan></text></g></g><g id="SvgjsG1430" transform="translate(66.55609740091894,605.6279327738727)"><path id="SvgjsPath1431" d="M 0 0L 142.67156856576202 0L 142.67156856576202 91.65775535391742L 0 91.65775535391742Z" stroke="rgba(50,50,50,1)" stroke-width="2" fill-opacity="1" fill="#ffffff"></path><g id="SvgjsG1432"><text id="SvgjsText1433" font-family="&quot;Times New Roman&quot;" text-anchor="middle" font-size="15px" width="123px" fill="#323232" font-weight="400" align="middle" anchor="middle" family="&quot;Times New Roman&quot;" size="15px" weight="400" font-style="" opacity="1" y="25.07887767695871" transform="rotate(0)"><tspan id="SvgjsTspan1434" dy="18" x="71.5"><tspan id="SvgjsTspan1435" style="text-decoration:;">根据论文数和 cite </tspan></tspan><tspan id="SvgjsTspan1436" dy="18" x="71.5"><tspan id="SvgjsTspan1437" style="text-decoration:;">排序数据</tspan></tspan></text></g></g><g id="SvgjsG1438" transform="translate(63.9098245695769,781.2588072448353)"><path id="SvgjsPath1439" d="M 0 0L 147.14285714285714 0L 147.14285714285714 86.02688088295474L 0 86.02688088295474Z" stroke="rgba(50,50,50,1)" stroke-width="2" fill-opacity="1" fill="#ff6666"></path><g id="SvgjsG1440"><text id="SvgjsText1441" font-family="微软雅黑" text-anchor="middle" font-size="15px" width="128px" fill="#323232" font-weight="400" align="middle" anchor="middle" family="微软雅黑" size="15px" weight="400" font-style="" opacity="1" y="31.76344044147737" transform="rotate(0)"><tspan id="SvgjsTspan1442" dy="18" x="74"><tspan id="SvgjsTspan1443" style="text-decoration:;">绘图</tspan></tspan></text></g></g><g id="SvgjsG1444" transform="translate(243.36601735873575,130.38014555864152)"><path id="SvgjsPath1445" d="M 0 19.8L 60 19.8L 60 0L 90 30L 60 60L 60 40.2L 0 40.2L 0 19.8Z" stroke="rgba(50,50,50,1)" stroke-width="2" fill-opacity="1" fill="#ffffff"></path><g id="SvgjsG1446"><text id="SvgjsText1447" font-family="微软雅黑" text-anchor="middle" font-size="13px" width="90px" fill="#323232" font-weight="400" align="middle" anchor="middle" family="微软雅黑" size="13px" weight="400" font-style="" opacity="1" y="20.05" transform="rotate(0)"></text></g></g><g id="SvgjsG1448"><path id="SvgjsPath1449" d="M441.95246275502706 192.3555843978982L469.8096056121699 192.3555843978982L469.8096056121699 192.3555843978982L497.6667484693128 192.3555843978982" stroke="#323232" stroke-width="2" fill="none" marker-end="url(#SvgjsMarker1450)"></path></g><g id="SvgjsG1452"><path id="SvgjsPath1453" d="M609.1730762149784 192.3555843978982L632.4915799492683 192.3555843978982L632.4915799492683 192.3555843978982L655.810083683558 192.3555843978982" stroke="#323232" stroke-width="2" fill="none" marker-end="url(#SvgjsMarker1454)"></path></g><g id="SvgjsG1456" transform="translate(777.1251758926461,140.14537606002062)"><path id="SvgjsPath1457" d="M 0 17.838016081162433L 51.73499344534761 17.838016081162433L 51.73499344534761 0L 78.76229053801796 27.027297092670352L 51.73499344534761 54.054594185340704L 51.73499344534761 36.216578104178275L 0 36.216578104178275L 0 17.838016081162433Z" stroke="rgba(50,50,50,1)" stroke-width="2" fill-opacity="1" fill="#ffffff"></path><g id="SvgjsG1458"><text id="SvgjsText1459" font-family="微软雅黑" text-anchor="middle" font-size="13px" width="79px" fill="#323232" font-weight="400" align="middle" anchor="middle" family="微软雅黑" size="13px" weight="400" font-style="" opacity="1" y="17.077297092670353" transform="rotate(0)"></text></g></g><g id="SvgjsG1460"><path id="SvgjsPath1461" d="M947.3413705594402 164.0706990377813L947.3413705594402 186.56832553973527L947.3413705594403 186.56832553973527L947.3413705594403 209.06595204168923" stroke="#323232" stroke-width="2" fill="none" marker-end="url(#SvgjsMarker1462)"></path></g><g id="SvgjsG1464"><path id="SvgjsPath1465" d="M947.3413705594403 269.0183364454629L947.3413705594403 287.46756931900046L947.3413705594402 287.46756931900046L947.3413705594402 305.916802192538" stroke="#323232" stroke-width="2" fill="none" marker-end="url(#SvgjsMarker1466)"></path></g><g id="SvgjsG1468"><path id="SvgjsPath1469" d="M947.3413705594402 365.91680219253806L947.3413705594402 382.9583858374799L947.3413705594402 382.9583858374799L947.3413705594402 399.99996948242176" stroke="#323232" stroke-width="2" fill="none" marker-end="url(#SvgjsMarker1470)"></path></g><g id="SvgjsG1472" transform="translate(919.8040888827046,466.5714024135043)"><path id="SvgjsPath1473" d="M 19.8 0L 40.2 0L 40.2 60L 60 60L 30 90L 0 60L 19.8 60L 19.8 0Z" stroke="rgba(50,50,50,1)" stroke-width="2" fill-opacity="1" fill="#ffffff"></path><g id="SvgjsG1474"><text id="SvgjsText1475" font-family="微软雅黑" text-anchor="middle" font-size="13px" width="84px" fill="#323232" font-weight="400" align="middle" anchor="middle" family="微软雅黑" size="13px" weight="400" font-style="" opacity="1" y="30.55" transform="rotate(0)"></text></g></g><g id="SvgjsG1476" transform="translate(804.6006711080604,739.3631512645376)"><path id="SvgjsPath1477" d="M 0 30L 30 0L 30 19.8L 90 19.8L 90 40.2L 30 40.2L 30 60L 0 30Z" stroke="rgba(50,50,50,1)" stroke-width="2" fill-opacity="1" fill="#ffffff"></path><g id="SvgjsG1478"><text id="SvgjsText1479" font-family="微软雅黑" text-anchor="middle" font-size="13px" width="90px" fill="#323232" font-weight="400" align="middle" anchor="middle" family="微软雅黑" size="13px" weight="400" font-style="" opacity="1" y="20.05" transform="rotate(0)"></text></g></g><g id="SvgjsG1480" transform="translate(541.095319897884,740.8699076092927)"><path id="SvgjsPath1481" d="M 0 29.246621827622448L 29.246621827622448 0L 29.246621827622448 19.302770406230817L 90.79214653278007 19.302770406230817L 90.79214653278007 39.19047324901408L 29.246621827622448 39.19047324901408L 29.246621827622448 58.493243655244896L 0 29.246621827622448Z" stroke="rgba(50,50,50,1)" stroke-width="2" fill-opacity="1" fill="#ffffff"></path><g id="SvgjsG1482"><text id="SvgjsText1483" font-family="微软雅黑" text-anchor="middle" font-size="13px" width="91px" fill="#323232" font-weight="400" align="middle" anchor="middle" family="微软雅黑" size="13px" weight="400" font-style="" opacity="1" y="19.29662182762245" transform="rotate(0)"></text></g></g><g id="SvgjsG1484" transform="translate(229.18817660895257,740.1165294369151)"><path id="SvgjsPath1485" d="M 0 30L 30 0L 30 19.8L 88.4785718603602 19.8L 88.4785718603602 40.2L 30 40.2L 30 60L 0 30Z" stroke="rgba(50,50,50,1)" stroke-width="2" fill-opacity="1" fill="#ffffff"></path><g id="SvgjsG1486"><text id="SvgjsText1487" font-family="微软雅黑" text-anchor="middle" font-size="13px" width="89px" fill="#323232" font-weight="400" align="middle" anchor="middle" family="微软雅黑" size="13px" weight="400" font-style="" opacity="1" y="20.05" transform="rotate(0)"></text></g></g><g id="SvgjsG1488"><path id="SvgjsPath1489" d="M974.3686875005233 753.7999877929688L974.3686875005233 780.9773107496725L974.3686875005233 780.9773107496725L974.3686875005233 808.1546337063762" stroke="#323232" stroke-width="2" fill="none" marker-end="url(#SvgjsMarker1490)"></path></g><g id="SvgjsG1492"><path id="SvgjsPath1493" d="M740.1298821832714 743.3067441377239L740.1298821832714 779.3734302074106L740.1298821832715 779.3734302074106L740.1298821832715 815.4401162770974" stroke="#323232" stroke-width="2" fill="none" marker-end="url(#SvgjsMarker1494)"></path></g><g id="SvgjsG1496"><path id="SvgjsPath1497" d="M419.59221222339283 568.1865271318202L419.59221222339283 602.2663922693336L419.7553091815999 602.2663922693336L419.7553091815999 636.3462574068469" stroke="#323232" stroke-width="2" fill="none" marker-end="url(#SvgjsMarker1498)"></path></g><g id="SvgjsG1500"><path id="SvgjsPath1501" d="M419.75530918159996 736.4869785898265L419.75530918159996 767.9250649271821L419.75530918159996 767.9250649271821L419.75530918159996 799.3631512645376" stroke="#323232" stroke-width="2" fill="none" marker-end="url(#SvgjsMarker1502)"></path></g><g id="SvgjsG1504"><path id="SvgjsPath1505" d="M137.8918816837999 697.2856881277901L137.8918816837999 739.2722476863128L137.48125314100548 739.2722476863128L137.48125314100548 781.2588072448353" stroke="#323232" stroke-width="2" fill="none" marker-end="url(#SvgjsMarker1506)"></path></g><g id="SvgjsG1508" transform="translate(575.843024359809,42.006676598144196)"><path id="SvgjsPath1509" d="M 0 49.999998183477445C 0 -16.666666061159148 174.76021509180123 -16.666666061159148 174.76021509180123 49.999998183477445Q 171.2650107899652 97.99999643961578 87.38010754590061 99.99999636695489Q 58.25340503060041 99.99999636695489 29.126702515300206 89.9999967302594L 0 99.99999636695489L 20.446945165740743 85.69999688648033Q 0 69.99999745686841 0 49.999998183477445" stroke="rgba(50,50,50,1)" stroke-width="2" fill-opacity="1" fill="#ffcc99"></path><g id="SvgjsG1510"><text id="SvgjsText1511" font-family="&quot;Times New Roman&quot;" text-anchor="middle" font-size="17px" width="155px" fill="#323232" font-weight="400" align="middle" anchor="middle" family="&quot;Times New Roman&quot;" size="17px" weight="400" font-style="" opacity="1" y="16.449998183477444" transform="rotate(0)"><tspan id="SvgjsTspan1512" dy="21" x="87.5"><tspan id="SvgjsTspan1513" style="text-decoration:;">year, origin, title, </tspan></tspan><tspan id="SvgjsTspan1514" dy="21" x="87.5"><tspan id="SvgjsTspan1515" style="text-decoration:;">topics, publisher, cite, </tspan></tspan><tspan id="SvgjsTspan1516" dy="21" x="87.5"><tspan id="SvgjsTspan1517" style="text-decoration:;">authors, url, abstract</tspan></tspan></text></g></g></svg>