<svg xmlns="http://www.w3.org/2000/svg" xmlns:ev="http://www.w3.org/2001/xml-events" xmlns:xlink="http://www.w3.org/1999/xlink" width="1122.518" height="793.701" class="st18" color-interpolation-filters="sRGB" viewBox="0 0 841.89 595.276" xml:space="preserve"><style type="text/css">.st1,.st2{fill:#fff;stroke:#000;stroke-linecap:round;stroke-linejoin:round;stroke-width:.75}.st2{fill:#3f3f3f;stroke:none}.st3{fill:#fff;font-family:Calibri;font-size:1.16666em;font-weight:700}.st4{font-size:1em}.st5{fill:#000;font-family:Calibri;font-size:1.16666em}.st6,.st7{stroke-linecap:round;stroke-linejoin:round;stroke-width:.75}.st6{fill:#fff;stroke:#000;stroke-dasharray:5.25,3.75}.st7{fill:none;stroke:none}.st8{fill:#000;font-family:Calibri;font-size:1.00001em}.st9{marker-end:url(#mrkr13-135);stroke:#000;stroke-linecap:round;stroke-linejoin:round;stroke-width:.2376}.st10{fill:#000;fill-opacity:1;stroke:#000;stroke-opacity:1;stroke-width:.086161879895561}.st11{fill:#d8d8d8;stroke-width:.75}.st11,.st12,.st13{stroke:#000;stroke-linecap:round;stroke-linejoin:round}.st12{fill:#a5a5a5;stroke-width:.75}.st13{fill:#656565}.st13,.st14,.st15{stroke-width:.75}.st14{fill:#7f7f7f;stroke:#000;stroke-linecap:round;stroke-linejoin:round}.st15{fill:#595959}.st15,.st16,.st17{stroke:#000;stroke-linecap:round;stroke-linejoin:round}.st16{fill:#3f3f3f;stroke-width:.75}.st17{stroke-width:.2376}.st18{fill:none;fill-rule:evenodd;font-size:12px;overflow:visible;stroke-linecap:square;stroke-miterlimit:3}</style><defs id="Markers"><g id="lend13"><path d="M 3 1 L 0 0 L 3 -1 L 3 1" style="stroke:none"/></g><marker id="mrkr13-135" class="st10" markerUnits="strokeWidth" orient="auto" overflow="visible" refX="-34.818"><use transform="scale(-11.606060606061,-11.606060606061)" xlink:href="#lend13"/></marker></defs><g><title>页-1</title><g id="shape1-1" transform="translate(141.732,-326.467)"><title>工作表.1</title><rect width="141.732" height="195.108" x="0" y="400.168" class="st1"/></g><g id="shape2-3" transform="translate(295.512,-326.467)"><title>工作表.2</title><rect width="282.756" height="195.108" x="0" y="400.168" class="st1"/></g><g id="shape3-5" transform="translate(595.276,-327.643)"><title>工作表.3</title><rect width="160.224" height="195.108" x="0" y="400.168" class="st1"/></g><g id="shape4-7" transform="translate(467.717,-102.53)"><title>工作表.4</title><rect width="293.386" height="215.433" x="0" y="379.843" class="st1"/></g><g id="shape5-9" transform="translate(295.512,-102.047)"><title>工作表.5</title><rect width="160.224" height="215.433" x="0" y="379.843" class="st1"/></g><g id="shape6-11" transform="translate(141.732,-102.047)"><title>工作表.6</title><rect width="141.732" height="215.433" x="0" y="379.843" class="st1"/></g><g id="shape8-13" transform="translate(165.456,-494.646)"><title>工作表.8</title><desc>Pre-preparing</desc><rect width="94.285" height="19.843" x="0" y="575.433" class="st2"/><text x="7" y="589.55" class="st3">Pre-<tspan class="st4">preparing</tspan></text></g><g id="shape9-17" transform="translate(384.449,-494.646)"><title>工作表.9</title><desc>Data Getting</desc><rect width="104.882" height="19.843" x="0" y="575.433" class="st2"/><text x="15.48" y="589.55" class="st3">Data Getting</text></g><g id="shape10-20" transform="translate(608.942,-491.444)"><title>工作表.10</title><desc>Data Preprocessing</desc><rect width="132.891" height="20.577" x="0" y="574.698" class="st2"/><text x="10.53" y="589.19" class="st3">Data Preprocessing</text></g><g id="shape11-23" transform="translate(576.142,-289.134)"><title>工作表.11</title><desc>Data Filtering</desc><rect width="85.039" height="19.843" x="0" y="575.433" class="st2"/><text x="3.3" y="589.55" class="st3">Data Filtering</text></g><g id="shape13-26" transform="translate(328.481,-289.134)"><title>工作表.13</title><desc>Data Analysis</desc><rect width="94.285" height="19.843" x="0" y="575.433" class="st2"/><text x="8.02" y="589.55" class="st3">Data Analysis</text></g><g id="shape14-29" transform="translate(152.362,-289.134)"><title>工作表.14</title><desc>Data Visualization</desc><rect width="120.472" height="19.843" x="0" y="575.433" class="st2"/><text x="7.7" y="589.55" class="st3">Data Visualization</text></g><g id="shape15-32" transform="translate(170.079,-449.008)"><title>流程</title><desc>Select keywords</desc><rect width="85.039" height="37.417" x="0" y="557.858" class="st1"/><text x="25.43" y="572.37" class="st5">Select <tspan x="15.14" class="st4" dy="1.2em">keywords</tspan></text></g><g id="shape16-36" transform="translate(170.079,-396.85)"><title>流程.16</title><desc>Select target websites</desc><rect width="85.039" height="37.417" x="0" y="557.858" class="st1"/><text x="6.58" y="572.37" class="st5">Select target <tspan x="17.45" class="st4" dy="1.2em">websites</tspan></text></g><g id="shape17-40" transform="translate(311.811,-427.004)"><title>流程.17</title><desc>Advanced search</desc><rect width="70.866" height="56.693" x="0" y="538.583" class="st1"/><text x="7.39" y="562.73" class="st5">Advanced <tspan x="16.78" class="st4" dy="1.2em">search</tspan></text></g><g id="shape18-44" transform="translate(401.457,-427.004)"><title>流程.18</title><desc>Select data</desc><rect width="70.866" height="56.693" x="0" y="538.583" class="st1"/><text x="4.03" y="571.13" class="st5">Select data</text></g><g id="shape19-47" transform="translate(491.102,-427.004)"><title>流程.19</title><desc>Crawl data</desc><rect width="70.866" height="56.693" x="0" y="538.583" class="st1"/><text x="4.99" y="571.13" class="st5">Crawl data</text></g><g id="shape20-50" transform="translate(622.947,-450.709)"><title>流程.20</title><desc>Fill data fields</desc><rect width="104.882" height="31.181" x="0" y="564.094" class="st1"/><text x="13.26" y="583.88" class="st5">Fill data fields</text></g><g id="shape21-53" transform="translate(622.947,-399.118)"><title>流程.21</title><desc>Normalize data fields</desc><rect width="104.882" height="37.417" x="0" y="557.858" class="st1"/><text x="9.07" y="572.37" class="st5">Normalize data <tspan x="37.19" class="st4" dy="1.2em">fields</tspan></text></g><g id="shape22-57" transform="translate(622.947,-334.488)"><title>流程.22</title><desc>Drop duplicated, blank and none values</desc><rect width="104.882" height="53.376" x="0" y="541.9" class="st1"/><text x="4.93" y="555.99" class="st5">Drop duplicated, <tspan x="8.54" class="st4" dy="1.2em">blank and none </tspan><tspan x="34.42" class="st4" dy="1.2em">values</tspan></text></g><g id="shape24-62" transform="translate(487.559,-119.764)"><title>工作表.24</title><path d="M0 595.28 L120.47 595.28 L120.47 437.24 L0 437.24 L0 595.28 Z" class="st6"/></g><g id="shape25-64" transform="translate(614.747,-119.764)"><title>工作表.25</title><path d="M0 595.28 L141.73 595.28 L141.73 437.24 L0 437.24 L0 595.28 Z" class="st6"/></g><g id="shape26-66" transform="translate(625.748,-205.665)"><title>流程.26</title><desc>Filter data by regular expression</desc><rect width="120.472" height="46.264" x="0" y="549.011" class="st1"/><text x="22.8" y="567.94" class="st5">Filter data by <tspan x="7.79" class="st4" dy="1.2em">regular expression</tspan></text></g><g id="shape27-70" transform="translate(646.299,-256.535)"><title>工作表.27</title><desc>Automatically</desc><rect width="85.039" height="19.843" x="0" y="575.433" class="st7"/><text x="3.17" y="589.55" class="st5">Automatically</text></g><g id="shape28-73" transform="translate(625.748,-130.901)"><title>流程.28</title><desc>Split the origin data into filtered and no-filtered</desc><rect width="120.472" height="56.693" x="0" y="538.583" class="st1"/><text x="4.49" y="554.33" class="st5">Split the origin data <tspan x="3.17" class="st4" dy="1.2em">into filtered and no</tspan>-<tspan x="39.46" class="st4" dy="1.2em">filtered</tspan></text></g><g id="shape29-78" transform="translate(500.99,-198.908)"><title>流程.29</title><desc>Filter data by title and topics</desc><rect width="94.285" height="53.376" x="0" y="541.9" class="st1"/><text x="9.71" y="564.39" class="st5">Filter data by <tspan x="4.87" class="st4" dy="1.2em">title and topics</tspan></text></g><g id="shape30-82" transform="translate(500.186,-132.294)"><title>流程.30</title><desc>Filter data by Abstract</desc><rect width="95.09" height="53.376" x="0" y="541.9" class="st1"/><text x="10.11" y="564.39" class="st5">Filter data by <tspan x="23.64" class="st4" dy="1.2em">Abstract</tspan></text></g><g id="shape31-86" transform="translate(511.654,-256.535)"><title>工作表.31</title><desc>Manually</desc><rect width="76.535" height="19.843" x="0" y="575.433" class="st7"/><text x="11.84" y="589.55" class="st5">Manually</text></g><g id="shape32-89" transform="translate(314.679,-250.866)"><title>流程.32</title><desc>Topics analysis</desc><rect width="120.472" height="31.181" x="0" y="564.094" class="st1"/><text x="18.33" y="583.88" class="st5">Topics analysis</text></g><g id="shape33-92" transform="translate(314.679,-191.967)"><title>流程.33</title><desc>Normalize and store the analysis results</desc><rect width="120.472" height="41.263" x="0" y="554.013" class="st1"/><text x="2.61" y="570.44" class="st5">Normalize and store <tspan x="6.3" class="st4" dy="1.2em">the analysis results</tspan></text></g><g id="shape34-96" transform="translate(314.679,-119.055)"><title>流程.34</title><desc>Summary the frequency of topics ordered by year</desc><rect width="120.472" height="56.693" x="0" y="538.583" class="st1"/><text x="22.11" y="554.33" class="st5">Summary the <tspan x="5.52" class="st4" dy="1.2em">frequency of topics </tspan><tspan x="14.89" class="st4" dy="1.2em">ordered by year</tspan></text></g><g id="shape35-101" transform="translate(161.575,-205.512)"><title>流程.35</title><desc>Sort the topics by frequency</desc><rect width="104.882" height="56.693" x="0" y="538.583" class="st1"/><text x="2.63" y="562.73" class="st5">Sort the topics by <tspan x="23.74" class="st4" dy="1.2em">frequency</tspan></text></g><g id="shape36-105" transform="translate(161.575,-130.876)"><title>流程.36</title><desc>Plot charts</desc><rect width="104.882" height="53.376" x="0" y="541.9" class="st1"/><text x="22.09" y="572.79" class="st5">Plot charts</text></g><g id="shape42-108" transform="translate(188.375,-330.795)"><title>工作表.42</title><ellipse cx="47.545" cy="565.083" class="st1" rx="47.545" ry="30.193"/></g><g id="shape39-110" transform="translate(193.4,-333.944)"><title>工作表.39</title><desc>Arxiv, Springer, ACM, IEEE, Science Direct</desc><rect width="85.039" height="54.088" x="0" y="541.188" class="st7"/><text x="5.49" y="557.43" class="st8">Arxiv, Springer, <tspan x="16.07" class="st4" dy="1.2em">ACM, IEEE, </tspan><tspan x="8.14" class="st4" dy="1.2em">Science Direct</tspan></text></g><g id="shape43-115" transform="translate(447.874,-334.488)"><title>工作表.43</title><ellipse cx="60.236" cy="558.425" class="st1" rx="60.236" ry="36.85"/></g><g id="shape37-117" transform="translate(457.795,-345.827)"><title>工作表.37</title><desc>Year, Origin, Title, Topics, Publisher, Cite, Authors, URL, A...</desc><rect width="104.882" height="46.264" x="0" y="549.011" class="st7"/><text x="8.89" y="554.14" class="st8">Year, Origin, Title, <tspan x="9.85" class="st4" dy="1.2em">Topics, Publisher, </tspan><tspan x="6.65" class="st4" dy="1.2em">Cite, Authors, URL, </tspan><tspan x="31.95" class="st4" dy="1.2em">Abstract</tspan></text></g><g id="shape44-123" transform="translate(326.929,-340.157)"><title>工作表.44</title><ellipse cx="48.695" cy="566.929" class="st1" rx="48.695" ry="28.346"/></g><g id="shape40-125" transform="translate(339.216,-347.709)"><title>工作表.40</title><desc>Limit the date range and the article type</desc><rect width="80.311" height="41.59" x="0" y="553.686" class="st7"/><text x="6.19" y="563.68" class="st8">Limit the date <tspan x="6.19" class="st4" dy="1.2em">range and the </tspan><tspan x="12.68" class="st4" dy="1.2em">article type</tspan></text></g><g id="shape51-130" transform="translate(807.874,146.268) rotate(90)"><title>工作表.51</title><path d="M0 595.28 L6.47 595.28" class="st9"/></g><g id="shape52-136" transform="translate(382.677,-455.351)"><title>工作表.52</title><path d="M0 595.28 L10.51 595.28" class="st9"/></g><g id="shape53-141" transform="translate(472.323,-455.351)"><title>工作表.53</title><path d="M0 595.28 L10.51 595.28" class="st9"/></g><g id="shape54-146" transform="translate(1270.66,144.567) rotate(90)"><title>工作表.54</title><path d="M0 595.28 L5.9 595.28" class="st9"/></g><g id="shape55-151" transform="translate(1270.66,196.157) rotate(90)"><title>工作表.55</title><path d="M0 595.28 L2.98 595.28" class="st9"/></g><g id="shape56-156" transform="translate(1281.26,389.611) rotate(90)"><title>工作表.56</title><path d="M0 595.28 L9.8 595.28" class="st9"/></g><g id="shape57-161" transform="translate(1143.13,414.455) rotate(91.7412)"><title>工作表.57</title><path d="M0 595.28 L4.97 595.28" class="st9"/></g><g id="shape58-166" transform="translate(970.191,344.409) rotate(90)"><title>工作表.58</title><path d="M0 595.28 L9.36 595.28" class="st9"/></g><g id="shape59-171" transform="translate(970.191,403.309) rotate(90)"><title>工作表.59</title><path d="M0 595.28 L7.95 595.28" class="st9"/></g><g id="shape60-176" transform="translate(809.291,389.764) rotate(90)"><title>工作表.60</title><path d="M0 595.28 L12.99 595.28" class="st9"/></g><g id="shape75-181" transform="translate(249.449,-479.055)"><title>环形箭头</title><path d="M63.78 574.02 L85.04 552.76 L80.79 552.76 A38.2677 38.2677 -180 0 0 4.25 552.76 L20.66 552.76 A21.8642 21.8642 0 0 1 64.38 552.76 L60.13 552.76 L63.78 574.02 Z" class="st11"/></g><g id="shape76-183" transform="translate(538.583,-479.055)"><title>环形箭头.76</title><path d="M63.78 574.02 L85.04 552.76 L80.79 552.76 A38.2677 38.2677 -180 0 0 4.25 552.76 L20.66 552.76 A21.8642 21.8642 0 0 1 64.38 552.76 L60.13 552.76 L63.78 574.02 Z" class="st12"/></g><g id="group78-185" transform="translate(737.008,-283.465)"><title>右弧形箭头</title><g id="shape79-186"><title>工作表.79</title><path d="M0 581.1 L14.17 566.93 L14.17 574.02 A45.3476 28.2217 -180 0 0 59.53 545.79 L59.53 559.96 A45.3476 28.2217 0 0 1 14.17 588.19 L14.17 595.28 L0 581.1 Z" class="st13"/></g><g id="shape78-188"><path d="M0 517.56 L0 531.74 A59.5188 28.2217 0 0 1 59.53 559.96 L59.53 545.79 A59.5188 28.2217 -180 0 0 0 517.56 Z" class="st14"/></g></g><g id="shape80-190" transform="translate(510.236,1045.98) rotate(180)"><title>环形箭头.80</title><path d="M63.78 574.02 L85.04 552.76 L80.79 552.76 A38.2677 38.2677 -180 0 0 4.25 552.76 L20.66 552.76 A21.8642 21.8642 0 0 1 64.38 552.76 L60.13 552.76 L63.78 574.02 Z" class="st15"/></g><g id="shape81-192" transform="translate(325.984,1045.98) rotate(180)"><title>环形箭头.81</title><path d="M63.78 574.02 L85.04 552.76 L80.79 552.76 A38.2677 38.2677 -180 0 0 4.25 552.76 L20.66 552.76 A21.8642 21.8642 0 0 1 64.38 552.76 L60.13 552.76 L63.78 574.02 Z" class="st16"/></g><g id="shape84-194" transform="translate(709.393,-31.3367) rotate(68.6278)"><title>工作表.84</title><path d="M0 579.14 C-6.78 595.16 13.71 597.94 28.5 593.38 C37.78 590.53 44.81 584.79 52.52 579.14" class="st17"/></g><g id="shape86-197" transform="translate(919.913,43.8487) rotate(77.742)"><title>工作表.86</title><path d="M0 586.03 C7.91 592.91 31.43 603 34.2 586.03" class="st17"/></g><g id="shape88-200" transform="translate(650.27,-386.398) rotate(21.0416)"><title>工作表.88</title><path d="M0 594.3 C4.04 596.55 7.07 594.42 10.17 593 C26.26 585.62 44.25 597.25 57.07 594.3" class="st17"/></g></g></svg>